M48
; DRILL file KiCad 10.0.3 date 2026-05-30T10:51:14
; FORMAT={-:-/ absolute / metric / decimal}
; #@! TF.CreationDate,2026-05-30T10:51:14-07:00
; #@! TF.GenerationSoftware,Kicad,Pcbnew,10.0.3
; #@! TF.FileFunction,NonPlated,1,2,NPTH
FMAT,2
METRIC
; #@! TA.AperFunction,NonPlated,NPTH,ComponentDrill
T1C1.700
; #@! TA.AperFunction,NonPlated,NPTH,ComponentDrill
T2C4.000
%
G90
G05
T1
X111.502Y-78.483
X111.502Y-97.532
X111.502Y-116.582
X121.662Y-78.483
X121.662Y-97.532
X121.662Y-116.582
X130.552Y-78.483
X130.552Y-97.532
X130.552Y-116.582
X140.713Y-78.483
X140.713Y-97.532
X140.713Y-116.582
X149.602Y-78.483
X149.602Y-97.532
X149.602Y-116.582
X159.762Y-78.483
X159.762Y-97.532
X159.762Y-116.582
X168.653Y-78.483
X168.653Y-97.532
X168.653Y-116.582
X178.812Y-78.483
X178.812Y-97.532
X178.812Y-116.582
T2
X116.582Y-78.483
X116.582Y-97.532
X116.582Y-116.582
X135.632Y-78.483
X135.632Y-97.532
X135.632Y-116.582
X154.683Y-78.483
X154.683Y-97.532
X154.683Y-116.582
X173.732Y-78.483
X173.732Y-97.532
X173.732Y-116.582
M30
