%TF.GenerationSoftware,KiCad,Pcbnew,10.0.3*%
%TF.CreationDate,2026-05-30T10:51:24-07:00*%
%TF.ProjectId,tridentpad,74726964-656e-4747-9061-642e6b696361,rev?*%
%TF.SameCoordinates,Original*%
%TF.FileFunction,Legend,Bot*%
%TF.FilePolarity,Positive*%
%FSLAX46Y46*%
G04 Gerber Fmt 4.6, Leading zero omitted, Abs format (unit mm)*
G04 Created by KiCad (PCBNEW 10.0.3) date 2026-05-30 10:51:24*
%MOMM*%
%LPD*%
G01*
G04 APERTURE LIST*
%ADD10C,0.150000*%
%ADD11C,0.101600*%
%ADD12C,0.100000*%
%ADD13C,0.120000*%
%ADD14C,0.127000*%
%ADD15C,0.254000*%
%ADD16C,0.025400*%
G04 APERTURE END LIST*
D10*
X110472319Y-57424405D02*
X109472319Y-57424405D01*
X109472319Y-57424405D02*
X109472319Y-57662500D01*
X109472319Y-57662500D02*
X109519938Y-57805357D01*
X109519938Y-57805357D02*
X109615176Y-57900595D01*
X109615176Y-57900595D02*
X109710414Y-57948214D01*
X109710414Y-57948214D02*
X109900890Y-57995833D01*
X109900890Y-57995833D02*
X110043747Y-57995833D01*
X110043747Y-57995833D02*
X110234223Y-57948214D01*
X110234223Y-57948214D02*
X110329461Y-57900595D01*
X110329461Y-57900595D02*
X110424700Y-57805357D01*
X110424700Y-57805357D02*
X110472319Y-57662500D01*
X110472319Y-57662500D02*
X110472319Y-57424405D01*
X110472319Y-58472024D02*
X110472319Y-58662500D01*
X110472319Y-58662500D02*
X110424700Y-58757738D01*
X110424700Y-58757738D02*
X110377080Y-58805357D01*
X110377080Y-58805357D02*
X110234223Y-58900595D01*
X110234223Y-58900595D02*
X110043747Y-58948214D01*
X110043747Y-58948214D02*
X109662795Y-58948214D01*
X109662795Y-58948214D02*
X109567557Y-58900595D01*
X109567557Y-58900595D02*
X109519938Y-58852976D01*
X109519938Y-58852976D02*
X109472319Y-58757738D01*
X109472319Y-58757738D02*
X109472319Y-58567262D01*
X109472319Y-58567262D02*
X109519938Y-58472024D01*
X109519938Y-58472024D02*
X109567557Y-58424405D01*
X109567557Y-58424405D02*
X109662795Y-58376786D01*
X109662795Y-58376786D02*
X109900890Y-58376786D01*
X109900890Y-58376786D02*
X109996128Y-58424405D01*
X109996128Y-58424405D02*
X110043747Y-58472024D01*
X110043747Y-58472024D02*
X110091366Y-58567262D01*
X110091366Y-58567262D02*
X110091366Y-58757738D01*
X110091366Y-58757738D02*
X110043747Y-58852976D01*
X110043747Y-58852976D02*
X109996128Y-58900595D01*
X109996128Y-58900595D02*
X109900890Y-58948214D01*
X110792319Y-54090595D02*
X109792319Y-54090595D01*
X110792319Y-54662023D02*
X110220890Y-54233452D01*
X109792319Y-54662023D02*
X110363747Y-54090595D01*
X118092319Y-57424405D02*
X117092319Y-57424405D01*
X117092319Y-57424405D02*
X117092319Y-57662500D01*
X117092319Y-57662500D02*
X117139938Y-57805357D01*
X117139938Y-57805357D02*
X117235176Y-57900595D01*
X117235176Y-57900595D02*
X117330414Y-57948214D01*
X117330414Y-57948214D02*
X117520890Y-57995833D01*
X117520890Y-57995833D02*
X117663747Y-57995833D01*
X117663747Y-57995833D02*
X117854223Y-57948214D01*
X117854223Y-57948214D02*
X117949461Y-57900595D01*
X117949461Y-57900595D02*
X118044700Y-57805357D01*
X118044700Y-57805357D02*
X118092319Y-57662500D01*
X118092319Y-57662500D02*
X118092319Y-57424405D01*
X117092319Y-58900595D02*
X117092319Y-58424405D01*
X117092319Y-58424405D02*
X117568509Y-58376786D01*
X117568509Y-58376786D02*
X117520890Y-58424405D01*
X117520890Y-58424405D02*
X117473271Y-58519643D01*
X117473271Y-58519643D02*
X117473271Y-58757738D01*
X117473271Y-58757738D02*
X117520890Y-58852976D01*
X117520890Y-58852976D02*
X117568509Y-58900595D01*
X117568509Y-58900595D02*
X117663747Y-58948214D01*
X117663747Y-58948214D02*
X117901842Y-58948214D01*
X117901842Y-58948214D02*
X117997080Y-58900595D01*
X117997080Y-58900595D02*
X118044700Y-58852976D01*
X118044700Y-58852976D02*
X118092319Y-58757738D01*
X118092319Y-58757738D02*
X118092319Y-58519643D01*
X118092319Y-58519643D02*
X118044700Y-58424405D01*
X118044700Y-58424405D02*
X117997080Y-58376786D01*
X118412319Y-54090595D02*
X117412319Y-54090595D01*
X118412319Y-54662023D02*
X117840890Y-54233452D01*
X117412319Y-54662023D02*
X117983747Y-54090595D01*
X125712319Y-57424405D02*
X124712319Y-57424405D01*
X124712319Y-57424405D02*
X124712319Y-57662500D01*
X124712319Y-57662500D02*
X124759938Y-57805357D01*
X124759938Y-57805357D02*
X124855176Y-57900595D01*
X124855176Y-57900595D02*
X124950414Y-57948214D01*
X124950414Y-57948214D02*
X125140890Y-57995833D01*
X125140890Y-57995833D02*
X125283747Y-57995833D01*
X125283747Y-57995833D02*
X125474223Y-57948214D01*
X125474223Y-57948214D02*
X125569461Y-57900595D01*
X125569461Y-57900595D02*
X125664700Y-57805357D01*
X125664700Y-57805357D02*
X125712319Y-57662500D01*
X125712319Y-57662500D02*
X125712319Y-57424405D01*
X125712319Y-58948214D02*
X125712319Y-58376786D01*
X125712319Y-58662500D02*
X124712319Y-58662500D01*
X124712319Y-58662500D02*
X124855176Y-58567262D01*
X124855176Y-58567262D02*
X124950414Y-58472024D01*
X124950414Y-58472024D02*
X124998033Y-58376786D01*
X126032319Y-54090595D02*
X125032319Y-54090595D01*
X126032319Y-54662023D02*
X125460890Y-54233452D01*
X125032319Y-54662023D02*
X125603747Y-54090595D01*
X114282319Y-56948214D02*
X113282319Y-56948214D01*
X113282319Y-56948214D02*
X113282319Y-57186309D01*
X113282319Y-57186309D02*
X113329938Y-57329166D01*
X113329938Y-57329166D02*
X113425176Y-57424404D01*
X113425176Y-57424404D02*
X113520414Y-57472023D01*
X113520414Y-57472023D02*
X113710890Y-57519642D01*
X113710890Y-57519642D02*
X113853747Y-57519642D01*
X113853747Y-57519642D02*
X114044223Y-57472023D01*
X114044223Y-57472023D02*
X114139461Y-57424404D01*
X114139461Y-57424404D02*
X114234700Y-57329166D01*
X114234700Y-57329166D02*
X114282319Y-57186309D01*
X114282319Y-57186309D02*
X114282319Y-56948214D01*
X114282319Y-58472023D02*
X114282319Y-57900595D01*
X114282319Y-58186309D02*
X113282319Y-58186309D01*
X113282319Y-58186309D02*
X113425176Y-58091071D01*
X113425176Y-58091071D02*
X113520414Y-57995833D01*
X113520414Y-57995833D02*
X113568033Y-57900595D01*
X113282319Y-59091071D02*
X113282319Y-59186309D01*
X113282319Y-59186309D02*
X113329938Y-59281547D01*
X113329938Y-59281547D02*
X113377557Y-59329166D01*
X113377557Y-59329166D02*
X113472795Y-59376785D01*
X113472795Y-59376785D02*
X113663271Y-59424404D01*
X113663271Y-59424404D02*
X113901366Y-59424404D01*
X113901366Y-59424404D02*
X114091842Y-59376785D01*
X114091842Y-59376785D02*
X114187080Y-59329166D01*
X114187080Y-59329166D02*
X114234700Y-59281547D01*
X114234700Y-59281547D02*
X114282319Y-59186309D01*
X114282319Y-59186309D02*
X114282319Y-59091071D01*
X114282319Y-59091071D02*
X114234700Y-58995833D01*
X114234700Y-58995833D02*
X114187080Y-58948214D01*
X114187080Y-58948214D02*
X114091842Y-58900595D01*
X114091842Y-58900595D02*
X113901366Y-58852976D01*
X113901366Y-58852976D02*
X113663271Y-58852976D01*
X113663271Y-58852976D02*
X113472795Y-58900595D01*
X113472795Y-58900595D02*
X113377557Y-58948214D01*
X113377557Y-58948214D02*
X113329938Y-58995833D01*
X113329938Y-58995833D02*
X113282319Y-59091071D01*
X114602319Y-54090595D02*
X113602319Y-54090595D01*
X114602319Y-54662023D02*
X114030890Y-54233452D01*
X113602319Y-54662023D02*
X114173747Y-54090595D01*
X129522319Y-57424405D02*
X128522319Y-57424405D01*
X128522319Y-57424405D02*
X128522319Y-57662500D01*
X128522319Y-57662500D02*
X128569938Y-57805357D01*
X128569938Y-57805357D02*
X128665176Y-57900595D01*
X128665176Y-57900595D02*
X128760414Y-57948214D01*
X128760414Y-57948214D02*
X128950890Y-57995833D01*
X128950890Y-57995833D02*
X129093747Y-57995833D01*
X129093747Y-57995833D02*
X129284223Y-57948214D01*
X129284223Y-57948214D02*
X129379461Y-57900595D01*
X129379461Y-57900595D02*
X129474700Y-57805357D01*
X129474700Y-57805357D02*
X129522319Y-57662500D01*
X129522319Y-57662500D02*
X129522319Y-57424405D01*
X128617557Y-58376786D02*
X128569938Y-58424405D01*
X128569938Y-58424405D02*
X128522319Y-58519643D01*
X128522319Y-58519643D02*
X128522319Y-58757738D01*
X128522319Y-58757738D02*
X128569938Y-58852976D01*
X128569938Y-58852976D02*
X128617557Y-58900595D01*
X128617557Y-58900595D02*
X128712795Y-58948214D01*
X128712795Y-58948214D02*
X128808033Y-58948214D01*
X128808033Y-58948214D02*
X128950890Y-58900595D01*
X128950890Y-58900595D02*
X129522319Y-58329167D01*
X129522319Y-58329167D02*
X129522319Y-58948214D01*
X129842319Y-54090595D02*
X128842319Y-54090595D01*
X129842319Y-54662023D02*
X129270890Y-54233452D01*
X128842319Y-54662023D02*
X129413747Y-54090595D01*
X158097319Y-57424405D02*
X157097319Y-57424405D01*
X157097319Y-57424405D02*
X157097319Y-57662500D01*
X157097319Y-57662500D02*
X157144938Y-57805357D01*
X157144938Y-57805357D02*
X157240176Y-57900595D01*
X157240176Y-57900595D02*
X157335414Y-57948214D01*
X157335414Y-57948214D02*
X157525890Y-57995833D01*
X157525890Y-57995833D02*
X157668747Y-57995833D01*
X157668747Y-57995833D02*
X157859223Y-57948214D01*
X157859223Y-57948214D02*
X157954461Y-57900595D01*
X157954461Y-57900595D02*
X158049700Y-57805357D01*
X158049700Y-57805357D02*
X158097319Y-57662500D01*
X158097319Y-57662500D02*
X158097319Y-57424405D01*
X157097319Y-58329167D02*
X157097319Y-58948214D01*
X157097319Y-58948214D02*
X157478271Y-58614881D01*
X157478271Y-58614881D02*
X157478271Y-58757738D01*
X157478271Y-58757738D02*
X157525890Y-58852976D01*
X157525890Y-58852976D02*
X157573509Y-58900595D01*
X157573509Y-58900595D02*
X157668747Y-58948214D01*
X157668747Y-58948214D02*
X157906842Y-58948214D01*
X157906842Y-58948214D02*
X158002080Y-58900595D01*
X158002080Y-58900595D02*
X158049700Y-58852976D01*
X158049700Y-58852976D02*
X158097319Y-58757738D01*
X158097319Y-58757738D02*
X158097319Y-58472024D01*
X158097319Y-58472024D02*
X158049700Y-58376786D01*
X158049700Y-58376786D02*
X158002080Y-58329167D01*
X158417319Y-54090595D02*
X157417319Y-54090595D01*
X158417319Y-54662023D02*
X157845890Y-54233452D01*
X157417319Y-54662023D02*
X157988747Y-54090595D01*
X177147319Y-56948214D02*
X176147319Y-56948214D01*
X176147319Y-56948214D02*
X176147319Y-57186309D01*
X176147319Y-57186309D02*
X176194938Y-57329166D01*
X176194938Y-57329166D02*
X176290176Y-57424404D01*
X176290176Y-57424404D02*
X176385414Y-57472023D01*
X176385414Y-57472023D02*
X176575890Y-57519642D01*
X176575890Y-57519642D02*
X176718747Y-57519642D01*
X176718747Y-57519642D02*
X176909223Y-57472023D01*
X176909223Y-57472023D02*
X177004461Y-57424404D01*
X177004461Y-57424404D02*
X177099700Y-57329166D01*
X177099700Y-57329166D02*
X177147319Y-57186309D01*
X177147319Y-57186309D02*
X177147319Y-56948214D01*
X177147319Y-58472023D02*
X177147319Y-57900595D01*
X177147319Y-58186309D02*
X176147319Y-58186309D01*
X176147319Y-58186309D02*
X176290176Y-58091071D01*
X176290176Y-58091071D02*
X176385414Y-57995833D01*
X176385414Y-57995833D02*
X176433033Y-57900595D01*
X176242557Y-58852976D02*
X176194938Y-58900595D01*
X176194938Y-58900595D02*
X176147319Y-58995833D01*
X176147319Y-58995833D02*
X176147319Y-59233928D01*
X176147319Y-59233928D02*
X176194938Y-59329166D01*
X176194938Y-59329166D02*
X176242557Y-59376785D01*
X176242557Y-59376785D02*
X176337795Y-59424404D01*
X176337795Y-59424404D02*
X176433033Y-59424404D01*
X176433033Y-59424404D02*
X176575890Y-59376785D01*
X176575890Y-59376785D02*
X177147319Y-58805357D01*
X177147319Y-58805357D02*
X177147319Y-59424404D01*
X177467319Y-54090595D02*
X176467319Y-54090595D01*
X177467319Y-54662023D02*
X176895890Y-54233452D01*
X176467319Y-54662023D02*
X177038747Y-54090595D01*
X121902319Y-57424405D02*
X120902319Y-57424405D01*
X120902319Y-57424405D02*
X120902319Y-57662500D01*
X120902319Y-57662500D02*
X120949938Y-57805357D01*
X120949938Y-57805357D02*
X121045176Y-57900595D01*
X121045176Y-57900595D02*
X121140414Y-57948214D01*
X121140414Y-57948214D02*
X121330890Y-57995833D01*
X121330890Y-57995833D02*
X121473747Y-57995833D01*
X121473747Y-57995833D02*
X121664223Y-57948214D01*
X121664223Y-57948214D02*
X121759461Y-57900595D01*
X121759461Y-57900595D02*
X121854700Y-57805357D01*
X121854700Y-57805357D02*
X121902319Y-57662500D01*
X121902319Y-57662500D02*
X121902319Y-57424405D01*
X120902319Y-58852976D02*
X120902319Y-58662500D01*
X120902319Y-58662500D02*
X120949938Y-58567262D01*
X120949938Y-58567262D02*
X120997557Y-58519643D01*
X120997557Y-58519643D02*
X121140414Y-58424405D01*
X121140414Y-58424405D02*
X121330890Y-58376786D01*
X121330890Y-58376786D02*
X121711842Y-58376786D01*
X121711842Y-58376786D02*
X121807080Y-58424405D01*
X121807080Y-58424405D02*
X121854700Y-58472024D01*
X121854700Y-58472024D02*
X121902319Y-58567262D01*
X121902319Y-58567262D02*
X121902319Y-58757738D01*
X121902319Y-58757738D02*
X121854700Y-58852976D01*
X121854700Y-58852976D02*
X121807080Y-58900595D01*
X121807080Y-58900595D02*
X121711842Y-58948214D01*
X121711842Y-58948214D02*
X121473747Y-58948214D01*
X121473747Y-58948214D02*
X121378509Y-58900595D01*
X121378509Y-58900595D02*
X121330890Y-58852976D01*
X121330890Y-58852976D02*
X121283271Y-58757738D01*
X121283271Y-58757738D02*
X121283271Y-58567262D01*
X121283271Y-58567262D02*
X121330890Y-58472024D01*
X121330890Y-58472024D02*
X121378509Y-58424405D01*
X121378509Y-58424405D02*
X121473747Y-58376786D01*
X122222319Y-54090595D02*
X121222319Y-54090595D01*
X122222319Y-54662023D02*
X121650890Y-54233452D01*
X121222319Y-54662023D02*
X121793747Y-54090595D01*
D11*
X145834833Y-59584485D02*
X145834833Y-60304152D01*
X145834833Y-60304152D02*
X145792500Y-60388818D01*
X145792500Y-60388818D02*
X145750166Y-60431152D01*
X145750166Y-60431152D02*
X145665500Y-60473485D01*
X145665500Y-60473485D02*
X145496166Y-60473485D01*
X145496166Y-60473485D02*
X145411500Y-60431152D01*
X145411500Y-60431152D02*
X145369166Y-60388818D01*
X145369166Y-60388818D02*
X145326833Y-60304152D01*
X145326833Y-60304152D02*
X145326833Y-59584485D01*
X144437833Y-60473485D02*
X144945833Y-60473485D01*
X144691833Y-60473485D02*
X144691833Y-59584485D01*
X144691833Y-59584485D02*
X144776500Y-59711485D01*
X144776500Y-59711485D02*
X144861167Y-59796152D01*
X144861167Y-59796152D02*
X144945833Y-59838485D01*
D10*
X149919404Y-56434700D02*
X149776547Y-56482319D01*
X149776547Y-56482319D02*
X149538452Y-56482319D01*
X149538452Y-56482319D02*
X149443214Y-56434700D01*
X149443214Y-56434700D02*
X149395595Y-56387080D01*
X149395595Y-56387080D02*
X149347976Y-56291842D01*
X149347976Y-56291842D02*
X149347976Y-56196604D01*
X149347976Y-56196604D02*
X149395595Y-56101366D01*
X149395595Y-56101366D02*
X149443214Y-56053747D01*
X149443214Y-56053747D02*
X149538452Y-56006128D01*
X149538452Y-56006128D02*
X149728928Y-55958509D01*
X149728928Y-55958509D02*
X149824166Y-55910890D01*
X149824166Y-55910890D02*
X149871785Y-55863271D01*
X149871785Y-55863271D02*
X149919404Y-55768033D01*
X149919404Y-55768033D02*
X149919404Y-55672795D01*
X149919404Y-55672795D02*
X149871785Y-55577557D01*
X149871785Y-55577557D02*
X149824166Y-55529938D01*
X149824166Y-55529938D02*
X149728928Y-55482319D01*
X149728928Y-55482319D02*
X149490833Y-55482319D01*
X149490833Y-55482319D02*
X149347976Y-55529938D01*
X148538452Y-56434700D02*
X148633690Y-56482319D01*
X148633690Y-56482319D02*
X148824166Y-56482319D01*
X148824166Y-56482319D02*
X148919404Y-56434700D01*
X148919404Y-56434700D02*
X148967023Y-56339461D01*
X148967023Y-56339461D02*
X148967023Y-55958509D01*
X148967023Y-55958509D02*
X148919404Y-55863271D01*
X148919404Y-55863271D02*
X148824166Y-55815652D01*
X148824166Y-55815652D02*
X148633690Y-55815652D01*
X148633690Y-55815652D02*
X148538452Y-55863271D01*
X148538452Y-55863271D02*
X148490833Y-55958509D01*
X148490833Y-55958509D02*
X148490833Y-56053747D01*
X148490833Y-56053747D02*
X148967023Y-56148985D01*
X147681309Y-56434700D02*
X147776547Y-56482319D01*
X147776547Y-56482319D02*
X147967023Y-56482319D01*
X147967023Y-56482319D02*
X148062261Y-56434700D01*
X148062261Y-56434700D02*
X148109880Y-56339461D01*
X148109880Y-56339461D02*
X148109880Y-55958509D01*
X148109880Y-55958509D02*
X148062261Y-55863271D01*
X148062261Y-55863271D02*
X147967023Y-55815652D01*
X147967023Y-55815652D02*
X147776547Y-55815652D01*
X147776547Y-55815652D02*
X147681309Y-55863271D01*
X147681309Y-55863271D02*
X147633690Y-55958509D01*
X147633690Y-55958509D02*
X147633690Y-56053747D01*
X147633690Y-56053747D02*
X148109880Y-56148985D01*
X146824166Y-56434700D02*
X146919404Y-56482319D01*
X146919404Y-56482319D02*
X147109880Y-56482319D01*
X147109880Y-56482319D02*
X147205118Y-56434700D01*
X147205118Y-56434700D02*
X147252737Y-56339461D01*
X147252737Y-56339461D02*
X147252737Y-55958509D01*
X147252737Y-55958509D02*
X147205118Y-55863271D01*
X147205118Y-55863271D02*
X147109880Y-55815652D01*
X147109880Y-55815652D02*
X146919404Y-55815652D01*
X146919404Y-55815652D02*
X146824166Y-55863271D01*
X146824166Y-55863271D02*
X146776547Y-55958509D01*
X146776547Y-55958509D02*
X146776547Y-56053747D01*
X146776547Y-56053747D02*
X147252737Y-56148985D01*
X145919404Y-56482319D02*
X145919404Y-55482319D01*
X145919404Y-56434700D02*
X146014642Y-56482319D01*
X146014642Y-56482319D02*
X146205118Y-56482319D01*
X146205118Y-56482319D02*
X146300356Y-56434700D01*
X146300356Y-56434700D02*
X146347975Y-56387080D01*
X146347975Y-56387080D02*
X146395594Y-56291842D01*
X146395594Y-56291842D02*
X146395594Y-56006128D01*
X146395594Y-56006128D02*
X146347975Y-55910890D01*
X146347975Y-55910890D02*
X146300356Y-55863271D01*
X146300356Y-55863271D02*
X146205118Y-55815652D01*
X146205118Y-55815652D02*
X146014642Y-55815652D01*
X146014642Y-55815652D02*
X145919404Y-55863271D01*
X144728927Y-56434700D02*
X144586070Y-56482319D01*
X144586070Y-56482319D02*
X144347975Y-56482319D01*
X144347975Y-56482319D02*
X144252737Y-56434700D01*
X144252737Y-56434700D02*
X144205118Y-56387080D01*
X144205118Y-56387080D02*
X144157499Y-56291842D01*
X144157499Y-56291842D02*
X144157499Y-56196604D01*
X144157499Y-56196604D02*
X144205118Y-56101366D01*
X144205118Y-56101366D02*
X144252737Y-56053747D01*
X144252737Y-56053747D02*
X144347975Y-56006128D01*
X144347975Y-56006128D02*
X144538451Y-55958509D01*
X144538451Y-55958509D02*
X144633689Y-55910890D01*
X144633689Y-55910890D02*
X144681308Y-55863271D01*
X144681308Y-55863271D02*
X144728927Y-55768033D01*
X144728927Y-55768033D02*
X144728927Y-55672795D01*
X144728927Y-55672795D02*
X144681308Y-55577557D01*
X144681308Y-55577557D02*
X144633689Y-55529938D01*
X144633689Y-55529938D02*
X144538451Y-55482319D01*
X144538451Y-55482319D02*
X144300356Y-55482319D01*
X144300356Y-55482319D02*
X144157499Y-55529938D01*
X143871784Y-55815652D02*
X143490832Y-55815652D01*
X143728927Y-55482319D02*
X143728927Y-56339461D01*
X143728927Y-56339461D02*
X143681308Y-56434700D01*
X143681308Y-56434700D02*
X143586070Y-56482319D01*
X143586070Y-56482319D02*
X143490832Y-56482319D01*
X142728927Y-55815652D02*
X142728927Y-56482319D01*
X143157498Y-55815652D02*
X143157498Y-56339461D01*
X143157498Y-56339461D02*
X143109879Y-56434700D01*
X143109879Y-56434700D02*
X143014641Y-56482319D01*
X143014641Y-56482319D02*
X142871784Y-56482319D01*
X142871784Y-56482319D02*
X142776546Y-56434700D01*
X142776546Y-56434700D02*
X142728927Y-56387080D01*
X141824165Y-56482319D02*
X141824165Y-55482319D01*
X141824165Y-56434700D02*
X141919403Y-56482319D01*
X141919403Y-56482319D02*
X142109879Y-56482319D01*
X142109879Y-56482319D02*
X142205117Y-56434700D01*
X142205117Y-56434700D02*
X142252736Y-56387080D01*
X142252736Y-56387080D02*
X142300355Y-56291842D01*
X142300355Y-56291842D02*
X142300355Y-56006128D01*
X142300355Y-56006128D02*
X142252736Y-55910890D01*
X142252736Y-55910890D02*
X142205117Y-55863271D01*
X142205117Y-55863271D02*
X142109879Y-55815652D01*
X142109879Y-55815652D02*
X141919403Y-55815652D01*
X141919403Y-55815652D02*
X141824165Y-55863271D01*
X141347974Y-56482319D02*
X141347974Y-55815652D01*
X141347974Y-55482319D02*
X141395593Y-55529938D01*
X141395593Y-55529938D02*
X141347974Y-55577557D01*
X141347974Y-55577557D02*
X141300355Y-55529938D01*
X141300355Y-55529938D02*
X141347974Y-55482319D01*
X141347974Y-55482319D02*
X141347974Y-55577557D01*
X140728927Y-56482319D02*
X140824165Y-56434700D01*
X140824165Y-56434700D02*
X140871784Y-56387080D01*
X140871784Y-56387080D02*
X140919403Y-56291842D01*
X140919403Y-56291842D02*
X140919403Y-56006128D01*
X140919403Y-56006128D02*
X140871784Y-55910890D01*
X140871784Y-55910890D02*
X140824165Y-55863271D01*
X140824165Y-55863271D02*
X140728927Y-55815652D01*
X140728927Y-55815652D02*
X140586070Y-55815652D01*
X140586070Y-55815652D02*
X140490832Y-55863271D01*
X140490832Y-55863271D02*
X140443213Y-55910890D01*
X140443213Y-55910890D02*
X140395594Y-56006128D01*
X140395594Y-56006128D02*
X140395594Y-56291842D01*
X140395594Y-56291842D02*
X140443213Y-56387080D01*
X140443213Y-56387080D02*
X140490832Y-56434700D01*
X140490832Y-56434700D02*
X140586070Y-56482319D01*
X140586070Y-56482319D02*
X140728927Y-56482319D01*
X146681308Y-57482319D02*
X146014642Y-58482319D01*
X146014642Y-57482319D02*
X146681308Y-58482319D01*
X145633689Y-58482319D02*
X145633689Y-57482319D01*
X145205118Y-58196604D02*
X144728928Y-58196604D01*
X145300356Y-58482319D02*
X144967023Y-57482319D01*
X144967023Y-57482319D02*
X144633690Y-58482319D01*
X144109880Y-57482319D02*
X143919404Y-57482319D01*
X143919404Y-57482319D02*
X143824166Y-57529938D01*
X143824166Y-57529938D02*
X143728928Y-57625176D01*
X143728928Y-57625176D02*
X143681309Y-57815652D01*
X143681309Y-57815652D02*
X143681309Y-58148985D01*
X143681309Y-58148985D02*
X143728928Y-58339461D01*
X143728928Y-58339461D02*
X143824166Y-58434700D01*
X143824166Y-58434700D02*
X143919404Y-58482319D01*
X143919404Y-58482319D02*
X144109880Y-58482319D01*
X144109880Y-58482319D02*
X144205118Y-58434700D01*
X144205118Y-58434700D02*
X144300356Y-58339461D01*
X144300356Y-58339461D02*
X144347975Y-58148985D01*
X144347975Y-58148985D02*
X144347975Y-57815652D01*
X144347975Y-57815652D02*
X144300356Y-57625176D01*
X144300356Y-57625176D02*
X144205118Y-57529938D01*
X144205118Y-57529938D02*
X144109880Y-57482319D01*
X165717319Y-57424405D02*
X164717319Y-57424405D01*
X164717319Y-57424405D02*
X164717319Y-57662500D01*
X164717319Y-57662500D02*
X164764938Y-57805357D01*
X164764938Y-57805357D02*
X164860176Y-57900595D01*
X164860176Y-57900595D02*
X164955414Y-57948214D01*
X164955414Y-57948214D02*
X165145890Y-57995833D01*
X165145890Y-57995833D02*
X165288747Y-57995833D01*
X165288747Y-57995833D02*
X165479223Y-57948214D01*
X165479223Y-57948214D02*
X165574461Y-57900595D01*
X165574461Y-57900595D02*
X165669700Y-57805357D01*
X165669700Y-57805357D02*
X165717319Y-57662500D01*
X165717319Y-57662500D02*
X165717319Y-57424405D01*
X164717319Y-58329167D02*
X164717319Y-58995833D01*
X164717319Y-58995833D02*
X165717319Y-58567262D01*
X166037319Y-54090595D02*
X165037319Y-54090595D01*
X166037319Y-54662023D02*
X165465890Y-54233452D01*
X165037319Y-54662023D02*
X165608747Y-54090595D01*
X169527319Y-57424405D02*
X168527319Y-57424405D01*
X168527319Y-57424405D02*
X168527319Y-57662500D01*
X168527319Y-57662500D02*
X168574938Y-57805357D01*
X168574938Y-57805357D02*
X168670176Y-57900595D01*
X168670176Y-57900595D02*
X168765414Y-57948214D01*
X168765414Y-57948214D02*
X168955890Y-57995833D01*
X168955890Y-57995833D02*
X169098747Y-57995833D01*
X169098747Y-57995833D02*
X169289223Y-57948214D01*
X169289223Y-57948214D02*
X169384461Y-57900595D01*
X169384461Y-57900595D02*
X169479700Y-57805357D01*
X169479700Y-57805357D02*
X169527319Y-57662500D01*
X169527319Y-57662500D02*
X169527319Y-57424405D01*
X168955890Y-58567262D02*
X168908271Y-58472024D01*
X168908271Y-58472024D02*
X168860652Y-58424405D01*
X168860652Y-58424405D02*
X168765414Y-58376786D01*
X168765414Y-58376786D02*
X168717795Y-58376786D01*
X168717795Y-58376786D02*
X168622557Y-58424405D01*
X168622557Y-58424405D02*
X168574938Y-58472024D01*
X168574938Y-58472024D02*
X168527319Y-58567262D01*
X168527319Y-58567262D02*
X168527319Y-58757738D01*
X168527319Y-58757738D02*
X168574938Y-58852976D01*
X168574938Y-58852976D02*
X168622557Y-58900595D01*
X168622557Y-58900595D02*
X168717795Y-58948214D01*
X168717795Y-58948214D02*
X168765414Y-58948214D01*
X168765414Y-58948214D02*
X168860652Y-58900595D01*
X168860652Y-58900595D02*
X168908271Y-58852976D01*
X168908271Y-58852976D02*
X168955890Y-58757738D01*
X168955890Y-58757738D02*
X168955890Y-58567262D01*
X168955890Y-58567262D02*
X169003509Y-58472024D01*
X169003509Y-58472024D02*
X169051128Y-58424405D01*
X169051128Y-58424405D02*
X169146366Y-58376786D01*
X169146366Y-58376786D02*
X169336842Y-58376786D01*
X169336842Y-58376786D02*
X169432080Y-58424405D01*
X169432080Y-58424405D02*
X169479700Y-58472024D01*
X169479700Y-58472024D02*
X169527319Y-58567262D01*
X169527319Y-58567262D02*
X169527319Y-58757738D01*
X169527319Y-58757738D02*
X169479700Y-58852976D01*
X169479700Y-58852976D02*
X169432080Y-58900595D01*
X169432080Y-58900595D02*
X169336842Y-58948214D01*
X169336842Y-58948214D02*
X169146366Y-58948214D01*
X169146366Y-58948214D02*
X169051128Y-58900595D01*
X169051128Y-58900595D02*
X169003509Y-58852976D01*
X169003509Y-58852976D02*
X168955890Y-58757738D01*
X169847319Y-54090595D02*
X168847319Y-54090595D01*
X169847319Y-54662023D02*
X169275890Y-54233452D01*
X168847319Y-54662023D02*
X169418747Y-54090595D01*
X173337319Y-56948214D02*
X172337319Y-56948214D01*
X172337319Y-56948214D02*
X172337319Y-57186309D01*
X172337319Y-57186309D02*
X172384938Y-57329166D01*
X172384938Y-57329166D02*
X172480176Y-57424404D01*
X172480176Y-57424404D02*
X172575414Y-57472023D01*
X172575414Y-57472023D02*
X172765890Y-57519642D01*
X172765890Y-57519642D02*
X172908747Y-57519642D01*
X172908747Y-57519642D02*
X173099223Y-57472023D01*
X173099223Y-57472023D02*
X173194461Y-57424404D01*
X173194461Y-57424404D02*
X173289700Y-57329166D01*
X173289700Y-57329166D02*
X173337319Y-57186309D01*
X173337319Y-57186309D02*
X173337319Y-56948214D01*
X173337319Y-58472023D02*
X173337319Y-57900595D01*
X173337319Y-58186309D02*
X172337319Y-58186309D01*
X172337319Y-58186309D02*
X172480176Y-58091071D01*
X172480176Y-58091071D02*
X172575414Y-57995833D01*
X172575414Y-57995833D02*
X172623033Y-57900595D01*
X173337319Y-59424404D02*
X173337319Y-58852976D01*
X173337319Y-59138690D02*
X172337319Y-59138690D01*
X172337319Y-59138690D02*
X172480176Y-59043452D01*
X172480176Y-59043452D02*
X172575414Y-58948214D01*
X172575414Y-58948214D02*
X172623033Y-58852976D01*
X173657319Y-54090595D02*
X172657319Y-54090595D01*
X173657319Y-54662023D02*
X173085890Y-54233452D01*
X172657319Y-54662023D02*
X173228747Y-54090595D01*
X161907319Y-57424405D02*
X160907319Y-57424405D01*
X160907319Y-57424405D02*
X160907319Y-57662500D01*
X160907319Y-57662500D02*
X160954938Y-57805357D01*
X160954938Y-57805357D02*
X161050176Y-57900595D01*
X161050176Y-57900595D02*
X161145414Y-57948214D01*
X161145414Y-57948214D02*
X161335890Y-57995833D01*
X161335890Y-57995833D02*
X161478747Y-57995833D01*
X161478747Y-57995833D02*
X161669223Y-57948214D01*
X161669223Y-57948214D02*
X161764461Y-57900595D01*
X161764461Y-57900595D02*
X161859700Y-57805357D01*
X161859700Y-57805357D02*
X161907319Y-57662500D01*
X161907319Y-57662500D02*
X161907319Y-57424405D01*
X161240652Y-58852976D02*
X161907319Y-58852976D01*
X160859700Y-58614881D02*
X161573985Y-58376786D01*
X161573985Y-58376786D02*
X161573985Y-58995833D01*
X162227319Y-54090595D02*
X161227319Y-54090595D01*
X162227319Y-54662023D02*
X161655890Y-54233452D01*
X161227319Y-54662023D02*
X161798747Y-54090595D01*
D12*
%TO.C,D21*%
X120782501Y-121924658D02*
X119882501Y-122824658D01*
X120782501Y-122824658D01*
X120782501Y-121924658D01*
G36*
X120782501Y-122824658D02*
G01*
X119882501Y-122824658D01*
X120782501Y-121924658D01*
X120782501Y-122824658D01*
G37*
%TO.C,D15*%
X158882501Y-83824658D02*
X157982501Y-84724658D01*
X158882501Y-84724658D01*
X158882501Y-83824658D01*
G36*
X158882501Y-84724658D02*
G01*
X157982501Y-84724658D01*
X158882501Y-83824658D01*
X158882501Y-84724658D01*
G37*
%TO.C,D17*%
X120782501Y-102874658D02*
X119882501Y-103774658D01*
X120782501Y-103774658D01*
X120782501Y-102874658D01*
G36*
X120782501Y-103774658D02*
G01*
X119882501Y-103774658D01*
X120782501Y-102874658D01*
X120782501Y-103774658D01*
G37*
%TO.C,D24*%
X177932501Y-121924658D02*
X177032501Y-122824658D01*
X177932501Y-122824658D01*
X177932501Y-121924658D01*
G36*
X177932501Y-122824658D02*
G01*
X177032501Y-122824658D01*
X177932501Y-121924658D01*
X177932501Y-122824658D01*
G37*
%TO.C,D22*%
X139832501Y-121924658D02*
X138932501Y-122824658D01*
X139832501Y-122824658D01*
X139832501Y-121924658D01*
G36*
X139832501Y-122824658D02*
G01*
X138932501Y-122824658D01*
X139832501Y-121924658D01*
X139832501Y-122824658D01*
G37*
%TO.C,D23*%
X158882501Y-121924658D02*
X157982501Y-122824658D01*
X158882501Y-122824658D01*
X158882501Y-121924658D01*
G36*
X158882501Y-122824658D02*
G01*
X157982501Y-122824658D01*
X158882501Y-121924658D01*
X158882501Y-122824658D01*
G37*
%TO.C,D20*%
X177932501Y-102874658D02*
X177032501Y-103774658D01*
X177932501Y-103774658D01*
X177932501Y-102874658D01*
G36*
X177932501Y-103774658D02*
G01*
X177032501Y-103774658D01*
X177932501Y-102874658D01*
X177932501Y-103774658D01*
G37*
%TO.C,D13*%
X120782501Y-83824658D02*
X119882501Y-84724658D01*
X120782501Y-84724658D01*
X120782501Y-83824658D01*
G36*
X120782501Y-84724658D02*
G01*
X119882501Y-84724658D01*
X120782501Y-83824658D01*
X120782501Y-84724658D01*
G37*
%TO.C,D14*%
X139832501Y-83824658D02*
X138932501Y-84724658D01*
X139832501Y-84724658D01*
X139832501Y-83824658D01*
G36*
X139832501Y-84724658D02*
G01*
X138932501Y-84724658D01*
X139832501Y-83824658D01*
X139832501Y-84724658D01*
G37*
%TO.C,D19*%
X158882501Y-102874658D02*
X157982501Y-103774658D01*
X158882501Y-103774658D01*
X158882501Y-102874658D01*
G36*
X158882501Y-103774658D02*
G01*
X157982501Y-103774658D01*
X158882501Y-102874658D01*
X158882501Y-103774658D01*
G37*
%TO.C,D18*%
X139832501Y-102874658D02*
X138932501Y-103774658D01*
X139832501Y-103774658D01*
X139832501Y-102874658D01*
G36*
X139832501Y-103774658D02*
G01*
X138932501Y-103774658D01*
X139832501Y-102874658D01*
X139832501Y-103774658D01*
G37*
%TO.C,D16*%
X177932501Y-83824658D02*
X177032501Y-84724658D01*
X177932501Y-84724658D01*
X177932501Y-83824658D01*
G36*
X177932501Y-84724658D02*
G01*
X177032501Y-84724658D01*
X177932501Y-83824658D01*
X177932501Y-84724658D01*
G37*
%TO.C,D9*%
D13*
X111017500Y-56642500D02*
X113257500Y-56642500D01*
X111017500Y-56762500D02*
X113257500Y-56762500D01*
X111017500Y-56882500D02*
X113257500Y-56882500D01*
X112137500Y-55392500D02*
X112137500Y-56042500D01*
X112137500Y-60932500D02*
X112137500Y-60282500D01*
X111017500Y-56042500D02*
X113257500Y-56042500D01*
X113257500Y-60282500D01*
X111017500Y-60282500D01*
X111017500Y-56042500D01*
%TO.C,D5*%
X118637500Y-56642500D02*
X120877500Y-56642500D01*
X118637500Y-56762500D02*
X120877500Y-56762500D01*
X118637500Y-56882500D02*
X120877500Y-56882500D01*
X119757500Y-55392500D02*
X119757500Y-56042500D01*
X119757500Y-60932500D02*
X119757500Y-60282500D01*
X118637500Y-56042500D02*
X120877500Y-56042500D01*
X120877500Y-60282500D01*
X118637500Y-60282500D01*
X118637500Y-56042500D01*
%TO.C,D1*%
X126257500Y-56642500D02*
X128497500Y-56642500D01*
X126257500Y-56762500D02*
X128497500Y-56762500D01*
X126257500Y-56882500D02*
X128497500Y-56882500D01*
X127377500Y-55392500D02*
X127377500Y-56042500D01*
X127377500Y-60932500D02*
X127377500Y-60282500D01*
X126257500Y-56042500D02*
X128497500Y-56042500D01*
X128497500Y-60282500D01*
X126257500Y-60282500D01*
X126257500Y-56042500D01*
%TO.C,D10*%
X114827500Y-56642500D02*
X117067500Y-56642500D01*
X114827500Y-56762500D02*
X117067500Y-56762500D01*
X114827500Y-56882500D02*
X117067500Y-56882500D01*
X115947500Y-55392500D02*
X115947500Y-56042500D01*
X115947500Y-60932500D02*
X115947500Y-60282500D01*
X114827500Y-56042500D02*
X117067500Y-56042500D01*
X117067500Y-60282500D01*
X114827500Y-60282500D01*
X114827500Y-56042500D01*
%TO.C,D2*%
X130067500Y-56642500D02*
X132307500Y-56642500D01*
X130067500Y-56762500D02*
X132307500Y-56762500D01*
X130067500Y-56882500D02*
X132307500Y-56882500D01*
X131187500Y-55392500D02*
X131187500Y-56042500D01*
X131187500Y-60932500D02*
X131187500Y-60282500D01*
X130067500Y-56042500D02*
X132307500Y-56042500D01*
X132307500Y-60282500D01*
X130067500Y-60282500D01*
X130067500Y-56042500D01*
%TO.C,D3*%
X158642500Y-56642500D02*
X160882500Y-56642500D01*
X158642500Y-56762500D02*
X160882500Y-56762500D01*
X158642500Y-56882500D02*
X160882500Y-56882500D01*
X159762500Y-55392500D02*
X159762500Y-56042500D01*
X159762500Y-60932500D02*
X159762500Y-60282500D01*
X158642500Y-56042500D02*
X160882500Y-56042500D01*
X160882500Y-60282500D01*
X158642500Y-60282500D01*
X158642500Y-56042500D01*
%TO.C,D12*%
X177692500Y-56642500D02*
X179932500Y-56642500D01*
X177692500Y-56762500D02*
X179932500Y-56762500D01*
X177692500Y-56882500D02*
X179932500Y-56882500D01*
X178812500Y-55392500D02*
X178812500Y-56042500D01*
X178812500Y-60932500D02*
X178812500Y-60282500D01*
X177692500Y-56042500D02*
X179932500Y-56042500D01*
X179932500Y-60282500D01*
X177692500Y-60282500D01*
X177692500Y-56042500D01*
%TO.C,D6*%
X122447500Y-56642500D02*
X124687500Y-56642500D01*
X122447500Y-56762500D02*
X124687500Y-56762500D01*
X122447500Y-56882500D02*
X124687500Y-56882500D01*
X123567500Y-55392500D02*
X123567500Y-56042500D01*
X123567500Y-60932500D02*
X123567500Y-60282500D01*
X122447500Y-56042500D02*
X124687500Y-56042500D01*
X124687500Y-60282500D01*
X122447500Y-60282500D01*
X122447500Y-56042500D01*
%TO.C,U1*%
D14*
X136257500Y-66027500D02*
X136257500Y-49027500D01*
X138257500Y-47028410D02*
X152057500Y-47028410D01*
X140657500Y-45603470D02*
X140657500Y-52956770D01*
X140657500Y-52956770D02*
X149657500Y-52956770D01*
X149657500Y-45603470D02*
X140657500Y-45603470D01*
X149657500Y-52956770D02*
X149657500Y-45603470D01*
X152057500Y-68027500D02*
X138257500Y-68027500D01*
X154057500Y-49027500D02*
X154057500Y-66027500D01*
D13*
X136257500Y-49027500D02*
G75*
G02*
X138257500Y-47027500I2044610J-44610D01*
G01*
X138257500Y-68027500D02*
G75*
G02*
X136257500Y-66027500I0J2000000D01*
G01*
X152057500Y-47027500D02*
G75*
G02*
X154057500Y-49027500I-44612J-2044612D01*
G01*
X154057500Y-66027500D02*
G75*
G02*
X152057500Y-68027500I-2044857J44857D01*
G01*
D15*
X156284500Y-48727500D02*
G75*
G02*
X156030500Y-48727500I-127000J0D01*
G01*
X156030500Y-48727500D02*
G75*
G02*
X156284500Y-48727500I127000J0D01*
G01*
D16*
X154045215Y-48965795D02*
X154042167Y-48917027D01*
X154038103Y-48868006D01*
X154045215Y-48965795D01*
X136268008Y-66049074D02*
X136269787Y-66098350D01*
X136272835Y-66147118D01*
X136276899Y-66196139D01*
X136282232Y-66244907D01*
X136288836Y-66293675D01*
X136296456Y-66342190D01*
X136305347Y-66390450D01*
X136315252Y-66438455D01*
X136268008Y-66049074D01*
%TO.C,D7*%
D13*
X166262500Y-56642500D02*
X168502500Y-56642500D01*
X166262500Y-56762500D02*
X168502500Y-56762500D01*
X166262500Y-56882500D02*
X168502500Y-56882500D01*
X167382500Y-55392500D02*
X167382500Y-56042500D01*
X167382500Y-60932500D02*
X167382500Y-60282500D01*
X166262500Y-56042500D02*
X168502500Y-56042500D01*
X168502500Y-60282500D01*
X166262500Y-60282500D01*
X166262500Y-56042500D01*
%TO.C,D8*%
X170072500Y-56642500D02*
X172312500Y-56642500D01*
X170072500Y-56762500D02*
X172312500Y-56762500D01*
X170072500Y-56882500D02*
X172312500Y-56882500D01*
X171192500Y-55392500D02*
X171192500Y-56042500D01*
X171192500Y-60932500D02*
X171192500Y-60282500D01*
X170072500Y-56042500D02*
X172312500Y-56042500D01*
X172312500Y-60282500D01*
X170072500Y-60282500D01*
X170072500Y-56042500D01*
%TO.C,D11*%
X173882500Y-56642500D02*
X176122500Y-56642500D01*
X173882500Y-56762500D02*
X176122500Y-56762500D01*
X173882500Y-56882500D02*
X176122500Y-56882500D01*
X175002500Y-55392500D02*
X175002500Y-56042500D01*
X175002500Y-60932500D02*
X175002500Y-60282500D01*
X173882500Y-56042500D02*
X176122500Y-56042500D01*
X176122500Y-60282500D01*
X173882500Y-60282500D01*
X173882500Y-56042500D01*
%TO.C,D4*%
X162452500Y-56642500D02*
X164692500Y-56642500D01*
X162452500Y-56762500D02*
X164692500Y-56762500D01*
X162452500Y-56882500D02*
X164692500Y-56882500D01*
X163572500Y-55392500D02*
X163572500Y-56042500D01*
X163572500Y-60932500D02*
X163572500Y-60282500D01*
X162452500Y-56042500D02*
X164692500Y-56042500D01*
X164692500Y-60282500D01*
X162452500Y-60282500D01*
X162452500Y-56042500D01*
%TD*%
M02*
