M48
; DRILL file KiCad 10.0.3 date 2026-05-30T10:51:14
; FORMAT={-:-/ absolute / metric / decimal}
; #@! TF.CreationDate,2026-05-30T10:51:14-07:00
; #@! TF.GenerationSoftware,Kicad,Pcbnew,10.0.3
; #@! TF.FileFunction,Plated,1,2,PTH
FMAT,2
METRIC
; #@! TA.AperFunction,Plated,PTH,ViaDrill
T1C0.300
; #@! TA.AperFunction,Plated,PTH,ComponentDrill
T2C0.800
; #@! TA.AperFunction,Plated,PTH,ComponentDrill
T3C1.000
; #@! TA.AperFunction,Plated,PTH,ComponentDrill
T4C1.500
%
G90
G05
T1
X115.947Y-88.642
X121.58Y-86.82
X121.662Y-88.642
X121.662Y-119.122
X123.567Y-86.737
X123.567Y-90.547
X123.567Y-107.692
X123.567Y-126.742
X126.107Y-79.417
X127.377Y-90.547
X127.377Y-109.597
X127.452Y-78.073
X128.012Y-121.327
X129.917Y-125.137
X131.188Y-65.782
X134.998Y-124.837
X136.478Y-86.313
X137.097Y-85.251
X138.808Y-86.737
X138.854Y-85.843
X142.618Y-122.932
X143.252Y-71.797
X150.237Y-82.927
X150.237Y-124.837
X154.047Y-73.403
X155.952Y-86.737
X159.762Y-84.832
X159.762Y-94.358
X159.762Y-124.237
X161.667Y-105.787
X162.302Y-96.562
X165.477Y-94.358
X165.477Y-105.787
X165.477Y-113.407
X166.201Y-94.699
X178.812Y-101.977
T2
X112.137Y-54.352
X112.137Y-61.972
X115.947Y-54.352
X115.947Y-61.972
X119.757Y-54.352
X119.757Y-61.972
X123.567Y-54.352
X123.567Y-61.972
X127.377Y-54.352
X127.377Y-61.972
X131.188Y-54.352
X131.188Y-61.972
X159.762Y-54.352
X159.762Y-61.972
X163.572Y-54.352
X163.572Y-61.972
X167.382Y-54.352
X167.382Y-61.972
X171.192Y-54.352
X171.192Y-61.972
X175.002Y-54.352
X175.002Y-61.972
X178.812Y-54.352
X178.812Y-61.972
T3
X137.532Y-49.907
X137.532Y-52.447
X137.532Y-54.987
X137.532Y-57.527
X137.532Y-60.067
X137.532Y-62.607
X137.532Y-65.147
X152.782Y-49.907
X152.782Y-52.447
X152.782Y-54.987
X152.782Y-57.527
X152.782Y-60.067
X152.782Y-62.607
X152.782Y-65.147
T4
X112.772Y-75.942
X112.772Y-94.992
X112.772Y-114.042
X119.122Y-73.403
X119.122Y-92.453
X119.122Y-111.502
X131.822Y-75.942
X131.822Y-94.992
X131.822Y-114.042
X138.172Y-73.403
X138.172Y-92.453
X138.172Y-111.502
X150.873Y-75.942
X150.873Y-94.992
X150.873Y-114.042
X157.222Y-73.403
X157.222Y-92.453
X157.222Y-111.502
X169.922Y-75.942
X169.922Y-94.992
X169.922Y-114.042
X176.272Y-73.403
X176.272Y-92.453
X176.272Y-111.502
M30
