%TF.GenerationSoftware,KiCad,Pcbnew,10.0.3*%
%TF.CreationDate,2026-05-30T10:51:24-07:00*%
%TF.ProjectId,tridentpad,74726964-656e-4747-9061-642e6b696361,rev?*%
%TF.SameCoordinates,Original*%
%TF.FileFunction,Legend,Top*%
%TF.FilePolarity,Positive*%
%FSLAX46Y46*%
G04 Gerber Fmt 4.6, Leading zero omitted, Abs format (unit mm)*
G04 Created by KiCad (PCBNEW 10.0.3) date 2026-05-30 10:51:24*
%MOMM*%
%LPD*%
G01*
G04 APERTURE LIST*
%ADD10C,0.150000*%
%ADD11C,0.200000*%
%ADD12C,0.120000*%
G04 APERTURE END LIST*
D10*
X172399167Y-71015700D02*
X172542024Y-71063319D01*
X172542024Y-71063319D02*
X172780119Y-71063319D01*
X172780119Y-71063319D02*
X172875357Y-71015700D01*
X172875357Y-71015700D02*
X172922976Y-70968080D01*
X172922976Y-70968080D02*
X172970595Y-70872842D01*
X172970595Y-70872842D02*
X172970595Y-70777604D01*
X172970595Y-70777604D02*
X172922976Y-70682366D01*
X172922976Y-70682366D02*
X172875357Y-70634747D01*
X172875357Y-70634747D02*
X172780119Y-70587128D01*
X172780119Y-70587128D02*
X172589643Y-70539509D01*
X172589643Y-70539509D02*
X172494405Y-70491890D01*
X172494405Y-70491890D02*
X172446786Y-70444271D01*
X172446786Y-70444271D02*
X172399167Y-70349033D01*
X172399167Y-70349033D02*
X172399167Y-70253795D01*
X172399167Y-70253795D02*
X172446786Y-70158557D01*
X172446786Y-70158557D02*
X172494405Y-70110938D01*
X172494405Y-70110938D02*
X172589643Y-70063319D01*
X172589643Y-70063319D02*
X172827738Y-70063319D01*
X172827738Y-70063319D02*
X172970595Y-70110938D01*
X173303929Y-70063319D02*
X173542024Y-71063319D01*
X173542024Y-71063319D02*
X173732500Y-70349033D01*
X173732500Y-70349033D02*
X173922976Y-71063319D01*
X173922976Y-71063319D02*
X174161072Y-70063319D01*
X174970595Y-70396652D02*
X174970595Y-71063319D01*
X174732500Y-70015700D02*
X174494405Y-70729985D01*
X174494405Y-70729985D02*
X175113452Y-70729985D01*
D11*
X115968214Y-118379719D02*
X115968214Y-117379719D01*
X115968214Y-117379719D02*
X116206309Y-117379719D01*
X116206309Y-117379719D02*
X116349166Y-117427338D01*
X116349166Y-117427338D02*
X116444404Y-117522576D01*
X116444404Y-117522576D02*
X116492023Y-117617814D01*
X116492023Y-117617814D02*
X116539642Y-117808290D01*
X116539642Y-117808290D02*
X116539642Y-117951147D01*
X116539642Y-117951147D02*
X116492023Y-118141623D01*
X116492023Y-118141623D02*
X116444404Y-118236861D01*
X116444404Y-118236861D02*
X116349166Y-118332100D01*
X116349166Y-118332100D02*
X116206309Y-118379719D01*
X116206309Y-118379719D02*
X115968214Y-118379719D01*
X116920595Y-117474957D02*
X116968214Y-117427338D01*
X116968214Y-117427338D02*
X117063452Y-117379719D01*
X117063452Y-117379719D02*
X117301547Y-117379719D01*
X117301547Y-117379719D02*
X117396785Y-117427338D01*
X117396785Y-117427338D02*
X117444404Y-117474957D01*
X117444404Y-117474957D02*
X117492023Y-117570195D01*
X117492023Y-117570195D02*
X117492023Y-117665433D01*
X117492023Y-117665433D02*
X117444404Y-117808290D01*
X117444404Y-117808290D02*
X116872976Y-118379719D01*
X116872976Y-118379719D02*
X117492023Y-118379719D01*
X118444404Y-118379719D02*
X117872976Y-118379719D01*
X118158690Y-118379719D02*
X118158690Y-117379719D01*
X118158690Y-117379719D02*
X118063452Y-117522576D01*
X118063452Y-117522576D02*
X117968214Y-117617814D01*
X117968214Y-117617814D02*
X117872976Y-117665433D01*
X154068214Y-80279719D02*
X154068214Y-79279719D01*
X154068214Y-79279719D02*
X154306309Y-79279719D01*
X154306309Y-79279719D02*
X154449166Y-79327338D01*
X154449166Y-79327338D02*
X154544404Y-79422576D01*
X154544404Y-79422576D02*
X154592023Y-79517814D01*
X154592023Y-79517814D02*
X154639642Y-79708290D01*
X154639642Y-79708290D02*
X154639642Y-79851147D01*
X154639642Y-79851147D02*
X154592023Y-80041623D01*
X154592023Y-80041623D02*
X154544404Y-80136861D01*
X154544404Y-80136861D02*
X154449166Y-80232100D01*
X154449166Y-80232100D02*
X154306309Y-80279719D01*
X154306309Y-80279719D02*
X154068214Y-80279719D01*
X155592023Y-80279719D02*
X155020595Y-80279719D01*
X155306309Y-80279719D02*
X155306309Y-79279719D01*
X155306309Y-79279719D02*
X155211071Y-79422576D01*
X155211071Y-79422576D02*
X155115833Y-79517814D01*
X155115833Y-79517814D02*
X155020595Y-79565433D01*
X156496785Y-79279719D02*
X156020595Y-79279719D01*
X156020595Y-79279719D02*
X155972976Y-79755909D01*
X155972976Y-79755909D02*
X156020595Y-79708290D01*
X156020595Y-79708290D02*
X156115833Y-79660671D01*
X156115833Y-79660671D02*
X156353928Y-79660671D01*
X156353928Y-79660671D02*
X156449166Y-79708290D01*
X156449166Y-79708290D02*
X156496785Y-79755909D01*
X156496785Y-79755909D02*
X156544404Y-79851147D01*
X156544404Y-79851147D02*
X156544404Y-80089242D01*
X156544404Y-80089242D02*
X156496785Y-80184480D01*
X156496785Y-80184480D02*
X156449166Y-80232100D01*
X156449166Y-80232100D02*
X156353928Y-80279719D01*
X156353928Y-80279719D02*
X156115833Y-80279719D01*
X156115833Y-80279719D02*
X156020595Y-80232100D01*
X156020595Y-80232100D02*
X155972976Y-80184480D01*
D10*
X153349167Y-71015700D02*
X153492024Y-71063319D01*
X153492024Y-71063319D02*
X153730119Y-71063319D01*
X153730119Y-71063319D02*
X153825357Y-71015700D01*
X153825357Y-71015700D02*
X153872976Y-70968080D01*
X153872976Y-70968080D02*
X153920595Y-70872842D01*
X153920595Y-70872842D02*
X153920595Y-70777604D01*
X153920595Y-70777604D02*
X153872976Y-70682366D01*
X153872976Y-70682366D02*
X153825357Y-70634747D01*
X153825357Y-70634747D02*
X153730119Y-70587128D01*
X153730119Y-70587128D02*
X153539643Y-70539509D01*
X153539643Y-70539509D02*
X153444405Y-70491890D01*
X153444405Y-70491890D02*
X153396786Y-70444271D01*
X153396786Y-70444271D02*
X153349167Y-70349033D01*
X153349167Y-70349033D02*
X153349167Y-70253795D01*
X153349167Y-70253795D02*
X153396786Y-70158557D01*
X153396786Y-70158557D02*
X153444405Y-70110938D01*
X153444405Y-70110938D02*
X153539643Y-70063319D01*
X153539643Y-70063319D02*
X153777738Y-70063319D01*
X153777738Y-70063319D02*
X153920595Y-70110938D01*
X154253929Y-70063319D02*
X154492024Y-71063319D01*
X154492024Y-71063319D02*
X154682500Y-70349033D01*
X154682500Y-70349033D02*
X154872976Y-71063319D01*
X154872976Y-71063319D02*
X155111072Y-70063319D01*
X155396786Y-70063319D02*
X156015833Y-70063319D01*
X156015833Y-70063319D02*
X155682500Y-70444271D01*
X155682500Y-70444271D02*
X155825357Y-70444271D01*
X155825357Y-70444271D02*
X155920595Y-70491890D01*
X155920595Y-70491890D02*
X155968214Y-70539509D01*
X155968214Y-70539509D02*
X156015833Y-70634747D01*
X156015833Y-70634747D02*
X156015833Y-70872842D01*
X156015833Y-70872842D02*
X155968214Y-70968080D01*
X155968214Y-70968080D02*
X155920595Y-71015700D01*
X155920595Y-71015700D02*
X155825357Y-71063319D01*
X155825357Y-71063319D02*
X155539643Y-71063319D01*
X155539643Y-71063319D02*
X155444405Y-71015700D01*
X155444405Y-71015700D02*
X155396786Y-70968080D01*
D11*
X115968214Y-99329719D02*
X115968214Y-98329719D01*
X115968214Y-98329719D02*
X116206309Y-98329719D01*
X116206309Y-98329719D02*
X116349166Y-98377338D01*
X116349166Y-98377338D02*
X116444404Y-98472576D01*
X116444404Y-98472576D02*
X116492023Y-98567814D01*
X116492023Y-98567814D02*
X116539642Y-98758290D01*
X116539642Y-98758290D02*
X116539642Y-98901147D01*
X116539642Y-98901147D02*
X116492023Y-99091623D01*
X116492023Y-99091623D02*
X116444404Y-99186861D01*
X116444404Y-99186861D02*
X116349166Y-99282100D01*
X116349166Y-99282100D02*
X116206309Y-99329719D01*
X116206309Y-99329719D02*
X115968214Y-99329719D01*
X117492023Y-99329719D02*
X116920595Y-99329719D01*
X117206309Y-99329719D02*
X117206309Y-98329719D01*
X117206309Y-98329719D02*
X117111071Y-98472576D01*
X117111071Y-98472576D02*
X117015833Y-98567814D01*
X117015833Y-98567814D02*
X116920595Y-98615433D01*
X117825357Y-98329719D02*
X118492023Y-98329719D01*
X118492023Y-98329719D02*
X118063452Y-99329719D01*
X173118214Y-118379719D02*
X173118214Y-117379719D01*
X173118214Y-117379719D02*
X173356309Y-117379719D01*
X173356309Y-117379719D02*
X173499166Y-117427338D01*
X173499166Y-117427338D02*
X173594404Y-117522576D01*
X173594404Y-117522576D02*
X173642023Y-117617814D01*
X173642023Y-117617814D02*
X173689642Y-117808290D01*
X173689642Y-117808290D02*
X173689642Y-117951147D01*
X173689642Y-117951147D02*
X173642023Y-118141623D01*
X173642023Y-118141623D02*
X173594404Y-118236861D01*
X173594404Y-118236861D02*
X173499166Y-118332100D01*
X173499166Y-118332100D02*
X173356309Y-118379719D01*
X173356309Y-118379719D02*
X173118214Y-118379719D01*
X174070595Y-117474957D02*
X174118214Y-117427338D01*
X174118214Y-117427338D02*
X174213452Y-117379719D01*
X174213452Y-117379719D02*
X174451547Y-117379719D01*
X174451547Y-117379719D02*
X174546785Y-117427338D01*
X174546785Y-117427338D02*
X174594404Y-117474957D01*
X174594404Y-117474957D02*
X174642023Y-117570195D01*
X174642023Y-117570195D02*
X174642023Y-117665433D01*
X174642023Y-117665433D02*
X174594404Y-117808290D01*
X174594404Y-117808290D02*
X174022976Y-118379719D01*
X174022976Y-118379719D02*
X174642023Y-118379719D01*
X175499166Y-117713052D02*
X175499166Y-118379719D01*
X175261071Y-117332100D02*
X175022976Y-118046385D01*
X175022976Y-118046385D02*
X175642023Y-118046385D01*
X135018214Y-118379719D02*
X135018214Y-117379719D01*
X135018214Y-117379719D02*
X135256309Y-117379719D01*
X135256309Y-117379719D02*
X135399166Y-117427338D01*
X135399166Y-117427338D02*
X135494404Y-117522576D01*
X135494404Y-117522576D02*
X135542023Y-117617814D01*
X135542023Y-117617814D02*
X135589642Y-117808290D01*
X135589642Y-117808290D02*
X135589642Y-117951147D01*
X135589642Y-117951147D02*
X135542023Y-118141623D01*
X135542023Y-118141623D02*
X135494404Y-118236861D01*
X135494404Y-118236861D02*
X135399166Y-118332100D01*
X135399166Y-118332100D02*
X135256309Y-118379719D01*
X135256309Y-118379719D02*
X135018214Y-118379719D01*
X135970595Y-117474957D02*
X136018214Y-117427338D01*
X136018214Y-117427338D02*
X136113452Y-117379719D01*
X136113452Y-117379719D02*
X136351547Y-117379719D01*
X136351547Y-117379719D02*
X136446785Y-117427338D01*
X136446785Y-117427338D02*
X136494404Y-117474957D01*
X136494404Y-117474957D02*
X136542023Y-117570195D01*
X136542023Y-117570195D02*
X136542023Y-117665433D01*
X136542023Y-117665433D02*
X136494404Y-117808290D01*
X136494404Y-117808290D02*
X135922976Y-118379719D01*
X135922976Y-118379719D02*
X136542023Y-118379719D01*
X136922976Y-117474957D02*
X136970595Y-117427338D01*
X136970595Y-117427338D02*
X137065833Y-117379719D01*
X137065833Y-117379719D02*
X137303928Y-117379719D01*
X137303928Y-117379719D02*
X137399166Y-117427338D01*
X137399166Y-117427338D02*
X137446785Y-117474957D01*
X137446785Y-117474957D02*
X137494404Y-117570195D01*
X137494404Y-117570195D02*
X137494404Y-117665433D01*
X137494404Y-117665433D02*
X137446785Y-117808290D01*
X137446785Y-117808290D02*
X136875357Y-118379719D01*
X136875357Y-118379719D02*
X137494404Y-118379719D01*
X154068214Y-118379719D02*
X154068214Y-117379719D01*
X154068214Y-117379719D02*
X154306309Y-117379719D01*
X154306309Y-117379719D02*
X154449166Y-117427338D01*
X154449166Y-117427338D02*
X154544404Y-117522576D01*
X154544404Y-117522576D02*
X154592023Y-117617814D01*
X154592023Y-117617814D02*
X154639642Y-117808290D01*
X154639642Y-117808290D02*
X154639642Y-117951147D01*
X154639642Y-117951147D02*
X154592023Y-118141623D01*
X154592023Y-118141623D02*
X154544404Y-118236861D01*
X154544404Y-118236861D02*
X154449166Y-118332100D01*
X154449166Y-118332100D02*
X154306309Y-118379719D01*
X154306309Y-118379719D02*
X154068214Y-118379719D01*
X155020595Y-117474957D02*
X155068214Y-117427338D01*
X155068214Y-117427338D02*
X155163452Y-117379719D01*
X155163452Y-117379719D02*
X155401547Y-117379719D01*
X155401547Y-117379719D02*
X155496785Y-117427338D01*
X155496785Y-117427338D02*
X155544404Y-117474957D01*
X155544404Y-117474957D02*
X155592023Y-117570195D01*
X155592023Y-117570195D02*
X155592023Y-117665433D01*
X155592023Y-117665433D02*
X155544404Y-117808290D01*
X155544404Y-117808290D02*
X154972976Y-118379719D01*
X154972976Y-118379719D02*
X155592023Y-118379719D01*
X155925357Y-117379719D02*
X156544404Y-117379719D01*
X156544404Y-117379719D02*
X156211071Y-117760671D01*
X156211071Y-117760671D02*
X156353928Y-117760671D01*
X156353928Y-117760671D02*
X156449166Y-117808290D01*
X156449166Y-117808290D02*
X156496785Y-117855909D01*
X156496785Y-117855909D02*
X156544404Y-117951147D01*
X156544404Y-117951147D02*
X156544404Y-118189242D01*
X156544404Y-118189242D02*
X156496785Y-118284480D01*
X156496785Y-118284480D02*
X156449166Y-118332100D01*
X156449166Y-118332100D02*
X156353928Y-118379719D01*
X156353928Y-118379719D02*
X156068214Y-118379719D01*
X156068214Y-118379719D02*
X155972976Y-118332100D01*
X155972976Y-118332100D02*
X155925357Y-118284480D01*
D10*
X133822976Y-109115700D02*
X133965833Y-109163319D01*
X133965833Y-109163319D02*
X134203928Y-109163319D01*
X134203928Y-109163319D02*
X134299166Y-109115700D01*
X134299166Y-109115700D02*
X134346785Y-109068080D01*
X134346785Y-109068080D02*
X134394404Y-108972842D01*
X134394404Y-108972842D02*
X134394404Y-108877604D01*
X134394404Y-108877604D02*
X134346785Y-108782366D01*
X134346785Y-108782366D02*
X134299166Y-108734747D01*
X134299166Y-108734747D02*
X134203928Y-108687128D01*
X134203928Y-108687128D02*
X134013452Y-108639509D01*
X134013452Y-108639509D02*
X133918214Y-108591890D01*
X133918214Y-108591890D02*
X133870595Y-108544271D01*
X133870595Y-108544271D02*
X133822976Y-108449033D01*
X133822976Y-108449033D02*
X133822976Y-108353795D01*
X133822976Y-108353795D02*
X133870595Y-108258557D01*
X133870595Y-108258557D02*
X133918214Y-108210938D01*
X133918214Y-108210938D02*
X134013452Y-108163319D01*
X134013452Y-108163319D02*
X134251547Y-108163319D01*
X134251547Y-108163319D02*
X134394404Y-108210938D01*
X134727738Y-108163319D02*
X134965833Y-109163319D01*
X134965833Y-109163319D02*
X135156309Y-108449033D01*
X135156309Y-108449033D02*
X135346785Y-109163319D01*
X135346785Y-109163319D02*
X135584881Y-108163319D01*
X136489642Y-109163319D02*
X135918214Y-109163319D01*
X136203928Y-109163319D02*
X136203928Y-108163319D01*
X136203928Y-108163319D02*
X136108690Y-108306176D01*
X136108690Y-108306176D02*
X136013452Y-108401414D01*
X136013452Y-108401414D02*
X135918214Y-108449033D01*
X137108690Y-108163319D02*
X137203928Y-108163319D01*
X137203928Y-108163319D02*
X137299166Y-108210938D01*
X137299166Y-108210938D02*
X137346785Y-108258557D01*
X137346785Y-108258557D02*
X137394404Y-108353795D01*
X137394404Y-108353795D02*
X137442023Y-108544271D01*
X137442023Y-108544271D02*
X137442023Y-108782366D01*
X137442023Y-108782366D02*
X137394404Y-108972842D01*
X137394404Y-108972842D02*
X137346785Y-109068080D01*
X137346785Y-109068080D02*
X137299166Y-109115700D01*
X137299166Y-109115700D02*
X137203928Y-109163319D01*
X137203928Y-109163319D02*
X137108690Y-109163319D01*
X137108690Y-109163319D02*
X137013452Y-109115700D01*
X137013452Y-109115700D02*
X136965833Y-109068080D01*
X136965833Y-109068080D02*
X136918214Y-108972842D01*
X136918214Y-108972842D02*
X136870595Y-108782366D01*
X136870595Y-108782366D02*
X136870595Y-108544271D01*
X136870595Y-108544271D02*
X136918214Y-108353795D01*
X136918214Y-108353795D02*
X136965833Y-108258557D01*
X136965833Y-108258557D02*
X137013452Y-108210938D01*
X137013452Y-108210938D02*
X137108690Y-108163319D01*
X134299167Y-71015700D02*
X134442024Y-71063319D01*
X134442024Y-71063319D02*
X134680119Y-71063319D01*
X134680119Y-71063319D02*
X134775357Y-71015700D01*
X134775357Y-71015700D02*
X134822976Y-70968080D01*
X134822976Y-70968080D02*
X134870595Y-70872842D01*
X134870595Y-70872842D02*
X134870595Y-70777604D01*
X134870595Y-70777604D02*
X134822976Y-70682366D01*
X134822976Y-70682366D02*
X134775357Y-70634747D01*
X134775357Y-70634747D02*
X134680119Y-70587128D01*
X134680119Y-70587128D02*
X134489643Y-70539509D01*
X134489643Y-70539509D02*
X134394405Y-70491890D01*
X134394405Y-70491890D02*
X134346786Y-70444271D01*
X134346786Y-70444271D02*
X134299167Y-70349033D01*
X134299167Y-70349033D02*
X134299167Y-70253795D01*
X134299167Y-70253795D02*
X134346786Y-70158557D01*
X134346786Y-70158557D02*
X134394405Y-70110938D01*
X134394405Y-70110938D02*
X134489643Y-70063319D01*
X134489643Y-70063319D02*
X134727738Y-70063319D01*
X134727738Y-70063319D02*
X134870595Y-70110938D01*
X135203929Y-70063319D02*
X135442024Y-71063319D01*
X135442024Y-71063319D02*
X135632500Y-70349033D01*
X135632500Y-70349033D02*
X135822976Y-71063319D01*
X135822976Y-71063319D02*
X136061072Y-70063319D01*
X136394405Y-70158557D02*
X136442024Y-70110938D01*
X136442024Y-70110938D02*
X136537262Y-70063319D01*
X136537262Y-70063319D02*
X136775357Y-70063319D01*
X136775357Y-70063319D02*
X136870595Y-70110938D01*
X136870595Y-70110938D02*
X136918214Y-70158557D01*
X136918214Y-70158557D02*
X136965833Y-70253795D01*
X136965833Y-70253795D02*
X136965833Y-70349033D01*
X136965833Y-70349033D02*
X136918214Y-70491890D01*
X136918214Y-70491890D02*
X136346786Y-71063319D01*
X136346786Y-71063319D02*
X136965833Y-71063319D01*
X152872976Y-109115700D02*
X153015833Y-109163319D01*
X153015833Y-109163319D02*
X153253928Y-109163319D01*
X153253928Y-109163319D02*
X153349166Y-109115700D01*
X153349166Y-109115700D02*
X153396785Y-109068080D01*
X153396785Y-109068080D02*
X153444404Y-108972842D01*
X153444404Y-108972842D02*
X153444404Y-108877604D01*
X153444404Y-108877604D02*
X153396785Y-108782366D01*
X153396785Y-108782366D02*
X153349166Y-108734747D01*
X153349166Y-108734747D02*
X153253928Y-108687128D01*
X153253928Y-108687128D02*
X153063452Y-108639509D01*
X153063452Y-108639509D02*
X152968214Y-108591890D01*
X152968214Y-108591890D02*
X152920595Y-108544271D01*
X152920595Y-108544271D02*
X152872976Y-108449033D01*
X152872976Y-108449033D02*
X152872976Y-108353795D01*
X152872976Y-108353795D02*
X152920595Y-108258557D01*
X152920595Y-108258557D02*
X152968214Y-108210938D01*
X152968214Y-108210938D02*
X153063452Y-108163319D01*
X153063452Y-108163319D02*
X153301547Y-108163319D01*
X153301547Y-108163319D02*
X153444404Y-108210938D01*
X153777738Y-108163319D02*
X154015833Y-109163319D01*
X154015833Y-109163319D02*
X154206309Y-108449033D01*
X154206309Y-108449033D02*
X154396785Y-109163319D01*
X154396785Y-109163319D02*
X154634881Y-108163319D01*
X155539642Y-109163319D02*
X154968214Y-109163319D01*
X155253928Y-109163319D02*
X155253928Y-108163319D01*
X155253928Y-108163319D02*
X155158690Y-108306176D01*
X155158690Y-108306176D02*
X155063452Y-108401414D01*
X155063452Y-108401414D02*
X154968214Y-108449033D01*
X156492023Y-109163319D02*
X155920595Y-109163319D01*
X156206309Y-109163319D02*
X156206309Y-108163319D01*
X156206309Y-108163319D02*
X156111071Y-108306176D01*
X156111071Y-108306176D02*
X156015833Y-108401414D01*
X156015833Y-108401414D02*
X155920595Y-108449033D01*
X115249167Y-71015700D02*
X115392024Y-71063319D01*
X115392024Y-71063319D02*
X115630119Y-71063319D01*
X115630119Y-71063319D02*
X115725357Y-71015700D01*
X115725357Y-71015700D02*
X115772976Y-70968080D01*
X115772976Y-70968080D02*
X115820595Y-70872842D01*
X115820595Y-70872842D02*
X115820595Y-70777604D01*
X115820595Y-70777604D02*
X115772976Y-70682366D01*
X115772976Y-70682366D02*
X115725357Y-70634747D01*
X115725357Y-70634747D02*
X115630119Y-70587128D01*
X115630119Y-70587128D02*
X115439643Y-70539509D01*
X115439643Y-70539509D02*
X115344405Y-70491890D01*
X115344405Y-70491890D02*
X115296786Y-70444271D01*
X115296786Y-70444271D02*
X115249167Y-70349033D01*
X115249167Y-70349033D02*
X115249167Y-70253795D01*
X115249167Y-70253795D02*
X115296786Y-70158557D01*
X115296786Y-70158557D02*
X115344405Y-70110938D01*
X115344405Y-70110938D02*
X115439643Y-70063319D01*
X115439643Y-70063319D02*
X115677738Y-70063319D01*
X115677738Y-70063319D02*
X115820595Y-70110938D01*
X116153929Y-70063319D02*
X116392024Y-71063319D01*
X116392024Y-71063319D02*
X116582500Y-70349033D01*
X116582500Y-70349033D02*
X116772976Y-71063319D01*
X116772976Y-71063319D02*
X117011072Y-70063319D01*
X117915833Y-71063319D02*
X117344405Y-71063319D01*
X117630119Y-71063319D02*
X117630119Y-70063319D01*
X117630119Y-70063319D02*
X117534881Y-70206176D01*
X117534881Y-70206176D02*
X117439643Y-70301414D01*
X117439643Y-70301414D02*
X117344405Y-70349033D01*
X171922976Y-109115700D02*
X172065833Y-109163319D01*
X172065833Y-109163319D02*
X172303928Y-109163319D01*
X172303928Y-109163319D02*
X172399166Y-109115700D01*
X172399166Y-109115700D02*
X172446785Y-109068080D01*
X172446785Y-109068080D02*
X172494404Y-108972842D01*
X172494404Y-108972842D02*
X172494404Y-108877604D01*
X172494404Y-108877604D02*
X172446785Y-108782366D01*
X172446785Y-108782366D02*
X172399166Y-108734747D01*
X172399166Y-108734747D02*
X172303928Y-108687128D01*
X172303928Y-108687128D02*
X172113452Y-108639509D01*
X172113452Y-108639509D02*
X172018214Y-108591890D01*
X172018214Y-108591890D02*
X171970595Y-108544271D01*
X171970595Y-108544271D02*
X171922976Y-108449033D01*
X171922976Y-108449033D02*
X171922976Y-108353795D01*
X171922976Y-108353795D02*
X171970595Y-108258557D01*
X171970595Y-108258557D02*
X172018214Y-108210938D01*
X172018214Y-108210938D02*
X172113452Y-108163319D01*
X172113452Y-108163319D02*
X172351547Y-108163319D01*
X172351547Y-108163319D02*
X172494404Y-108210938D01*
X172827738Y-108163319D02*
X173065833Y-109163319D01*
X173065833Y-109163319D02*
X173256309Y-108449033D01*
X173256309Y-108449033D02*
X173446785Y-109163319D01*
X173446785Y-109163319D02*
X173684881Y-108163319D01*
X174589642Y-109163319D02*
X174018214Y-109163319D01*
X174303928Y-109163319D02*
X174303928Y-108163319D01*
X174303928Y-108163319D02*
X174208690Y-108306176D01*
X174208690Y-108306176D02*
X174113452Y-108401414D01*
X174113452Y-108401414D02*
X174018214Y-108449033D01*
X174970595Y-108258557D02*
X175018214Y-108210938D01*
X175018214Y-108210938D02*
X175113452Y-108163319D01*
X175113452Y-108163319D02*
X175351547Y-108163319D01*
X175351547Y-108163319D02*
X175446785Y-108210938D01*
X175446785Y-108210938D02*
X175494404Y-108258557D01*
X175494404Y-108258557D02*
X175542023Y-108353795D01*
X175542023Y-108353795D02*
X175542023Y-108449033D01*
X175542023Y-108449033D02*
X175494404Y-108591890D01*
X175494404Y-108591890D02*
X174922976Y-109163319D01*
X174922976Y-109163319D02*
X175542023Y-109163319D01*
D11*
X173118214Y-99329719D02*
X173118214Y-98329719D01*
X173118214Y-98329719D02*
X173356309Y-98329719D01*
X173356309Y-98329719D02*
X173499166Y-98377338D01*
X173499166Y-98377338D02*
X173594404Y-98472576D01*
X173594404Y-98472576D02*
X173642023Y-98567814D01*
X173642023Y-98567814D02*
X173689642Y-98758290D01*
X173689642Y-98758290D02*
X173689642Y-98901147D01*
X173689642Y-98901147D02*
X173642023Y-99091623D01*
X173642023Y-99091623D02*
X173594404Y-99186861D01*
X173594404Y-99186861D02*
X173499166Y-99282100D01*
X173499166Y-99282100D02*
X173356309Y-99329719D01*
X173356309Y-99329719D02*
X173118214Y-99329719D01*
X174070595Y-98424957D02*
X174118214Y-98377338D01*
X174118214Y-98377338D02*
X174213452Y-98329719D01*
X174213452Y-98329719D02*
X174451547Y-98329719D01*
X174451547Y-98329719D02*
X174546785Y-98377338D01*
X174546785Y-98377338D02*
X174594404Y-98424957D01*
X174594404Y-98424957D02*
X174642023Y-98520195D01*
X174642023Y-98520195D02*
X174642023Y-98615433D01*
X174642023Y-98615433D02*
X174594404Y-98758290D01*
X174594404Y-98758290D02*
X174022976Y-99329719D01*
X174022976Y-99329719D02*
X174642023Y-99329719D01*
X175261071Y-98329719D02*
X175356309Y-98329719D01*
X175356309Y-98329719D02*
X175451547Y-98377338D01*
X175451547Y-98377338D02*
X175499166Y-98424957D01*
X175499166Y-98424957D02*
X175546785Y-98520195D01*
X175546785Y-98520195D02*
X175594404Y-98710671D01*
X175594404Y-98710671D02*
X175594404Y-98948766D01*
X175594404Y-98948766D02*
X175546785Y-99139242D01*
X175546785Y-99139242D02*
X175499166Y-99234480D01*
X175499166Y-99234480D02*
X175451547Y-99282100D01*
X175451547Y-99282100D02*
X175356309Y-99329719D01*
X175356309Y-99329719D02*
X175261071Y-99329719D01*
X175261071Y-99329719D02*
X175165833Y-99282100D01*
X175165833Y-99282100D02*
X175118214Y-99234480D01*
X175118214Y-99234480D02*
X175070595Y-99139242D01*
X175070595Y-99139242D02*
X175022976Y-98948766D01*
X175022976Y-98948766D02*
X175022976Y-98710671D01*
X175022976Y-98710671D02*
X175070595Y-98520195D01*
X175070595Y-98520195D02*
X175118214Y-98424957D01*
X175118214Y-98424957D02*
X175165833Y-98377338D01*
X175165833Y-98377338D02*
X175261071Y-98329719D01*
X115968214Y-80279719D02*
X115968214Y-79279719D01*
X115968214Y-79279719D02*
X116206309Y-79279719D01*
X116206309Y-79279719D02*
X116349166Y-79327338D01*
X116349166Y-79327338D02*
X116444404Y-79422576D01*
X116444404Y-79422576D02*
X116492023Y-79517814D01*
X116492023Y-79517814D02*
X116539642Y-79708290D01*
X116539642Y-79708290D02*
X116539642Y-79851147D01*
X116539642Y-79851147D02*
X116492023Y-80041623D01*
X116492023Y-80041623D02*
X116444404Y-80136861D01*
X116444404Y-80136861D02*
X116349166Y-80232100D01*
X116349166Y-80232100D02*
X116206309Y-80279719D01*
X116206309Y-80279719D02*
X115968214Y-80279719D01*
X117492023Y-80279719D02*
X116920595Y-80279719D01*
X117206309Y-80279719D02*
X117206309Y-79279719D01*
X117206309Y-79279719D02*
X117111071Y-79422576D01*
X117111071Y-79422576D02*
X117015833Y-79517814D01*
X117015833Y-79517814D02*
X116920595Y-79565433D01*
X117825357Y-79279719D02*
X118444404Y-79279719D01*
X118444404Y-79279719D02*
X118111071Y-79660671D01*
X118111071Y-79660671D02*
X118253928Y-79660671D01*
X118253928Y-79660671D02*
X118349166Y-79708290D01*
X118349166Y-79708290D02*
X118396785Y-79755909D01*
X118396785Y-79755909D02*
X118444404Y-79851147D01*
X118444404Y-79851147D02*
X118444404Y-80089242D01*
X118444404Y-80089242D02*
X118396785Y-80184480D01*
X118396785Y-80184480D02*
X118349166Y-80232100D01*
X118349166Y-80232100D02*
X118253928Y-80279719D01*
X118253928Y-80279719D02*
X117968214Y-80279719D01*
X117968214Y-80279719D02*
X117872976Y-80232100D01*
X117872976Y-80232100D02*
X117825357Y-80184480D01*
D10*
X134299167Y-90065700D02*
X134442024Y-90113319D01*
X134442024Y-90113319D02*
X134680119Y-90113319D01*
X134680119Y-90113319D02*
X134775357Y-90065700D01*
X134775357Y-90065700D02*
X134822976Y-90018080D01*
X134822976Y-90018080D02*
X134870595Y-89922842D01*
X134870595Y-89922842D02*
X134870595Y-89827604D01*
X134870595Y-89827604D02*
X134822976Y-89732366D01*
X134822976Y-89732366D02*
X134775357Y-89684747D01*
X134775357Y-89684747D02*
X134680119Y-89637128D01*
X134680119Y-89637128D02*
X134489643Y-89589509D01*
X134489643Y-89589509D02*
X134394405Y-89541890D01*
X134394405Y-89541890D02*
X134346786Y-89494271D01*
X134346786Y-89494271D02*
X134299167Y-89399033D01*
X134299167Y-89399033D02*
X134299167Y-89303795D01*
X134299167Y-89303795D02*
X134346786Y-89208557D01*
X134346786Y-89208557D02*
X134394405Y-89160938D01*
X134394405Y-89160938D02*
X134489643Y-89113319D01*
X134489643Y-89113319D02*
X134727738Y-89113319D01*
X134727738Y-89113319D02*
X134870595Y-89160938D01*
X135203929Y-89113319D02*
X135442024Y-90113319D01*
X135442024Y-90113319D02*
X135632500Y-89399033D01*
X135632500Y-89399033D02*
X135822976Y-90113319D01*
X135822976Y-90113319D02*
X136061072Y-89113319D01*
X136870595Y-89113319D02*
X136680119Y-89113319D01*
X136680119Y-89113319D02*
X136584881Y-89160938D01*
X136584881Y-89160938D02*
X136537262Y-89208557D01*
X136537262Y-89208557D02*
X136442024Y-89351414D01*
X136442024Y-89351414D02*
X136394405Y-89541890D01*
X136394405Y-89541890D02*
X136394405Y-89922842D01*
X136394405Y-89922842D02*
X136442024Y-90018080D01*
X136442024Y-90018080D02*
X136489643Y-90065700D01*
X136489643Y-90065700D02*
X136584881Y-90113319D01*
X136584881Y-90113319D02*
X136775357Y-90113319D01*
X136775357Y-90113319D02*
X136870595Y-90065700D01*
X136870595Y-90065700D02*
X136918214Y-90018080D01*
X136918214Y-90018080D02*
X136965833Y-89922842D01*
X136965833Y-89922842D02*
X136965833Y-89684747D01*
X136965833Y-89684747D02*
X136918214Y-89589509D01*
X136918214Y-89589509D02*
X136870595Y-89541890D01*
X136870595Y-89541890D02*
X136775357Y-89494271D01*
X136775357Y-89494271D02*
X136584881Y-89494271D01*
X136584881Y-89494271D02*
X136489643Y-89541890D01*
X136489643Y-89541890D02*
X136442024Y-89589509D01*
X136442024Y-89589509D02*
X136394405Y-89684747D01*
D11*
X135018214Y-80279719D02*
X135018214Y-79279719D01*
X135018214Y-79279719D02*
X135256309Y-79279719D01*
X135256309Y-79279719D02*
X135399166Y-79327338D01*
X135399166Y-79327338D02*
X135494404Y-79422576D01*
X135494404Y-79422576D02*
X135542023Y-79517814D01*
X135542023Y-79517814D02*
X135589642Y-79708290D01*
X135589642Y-79708290D02*
X135589642Y-79851147D01*
X135589642Y-79851147D02*
X135542023Y-80041623D01*
X135542023Y-80041623D02*
X135494404Y-80136861D01*
X135494404Y-80136861D02*
X135399166Y-80232100D01*
X135399166Y-80232100D02*
X135256309Y-80279719D01*
X135256309Y-80279719D02*
X135018214Y-80279719D01*
X136542023Y-80279719D02*
X135970595Y-80279719D01*
X136256309Y-80279719D02*
X136256309Y-79279719D01*
X136256309Y-79279719D02*
X136161071Y-79422576D01*
X136161071Y-79422576D02*
X136065833Y-79517814D01*
X136065833Y-79517814D02*
X135970595Y-79565433D01*
X137399166Y-79613052D02*
X137399166Y-80279719D01*
X137161071Y-79232100D02*
X136922976Y-79946385D01*
X136922976Y-79946385D02*
X137542023Y-79946385D01*
X154068214Y-99329719D02*
X154068214Y-98329719D01*
X154068214Y-98329719D02*
X154306309Y-98329719D01*
X154306309Y-98329719D02*
X154449166Y-98377338D01*
X154449166Y-98377338D02*
X154544404Y-98472576D01*
X154544404Y-98472576D02*
X154592023Y-98567814D01*
X154592023Y-98567814D02*
X154639642Y-98758290D01*
X154639642Y-98758290D02*
X154639642Y-98901147D01*
X154639642Y-98901147D02*
X154592023Y-99091623D01*
X154592023Y-99091623D02*
X154544404Y-99186861D01*
X154544404Y-99186861D02*
X154449166Y-99282100D01*
X154449166Y-99282100D02*
X154306309Y-99329719D01*
X154306309Y-99329719D02*
X154068214Y-99329719D01*
X155592023Y-99329719D02*
X155020595Y-99329719D01*
X155306309Y-99329719D02*
X155306309Y-98329719D01*
X155306309Y-98329719D02*
X155211071Y-98472576D01*
X155211071Y-98472576D02*
X155115833Y-98567814D01*
X155115833Y-98567814D02*
X155020595Y-98615433D01*
X156068214Y-99329719D02*
X156258690Y-99329719D01*
X156258690Y-99329719D02*
X156353928Y-99282100D01*
X156353928Y-99282100D02*
X156401547Y-99234480D01*
X156401547Y-99234480D02*
X156496785Y-99091623D01*
X156496785Y-99091623D02*
X156544404Y-98901147D01*
X156544404Y-98901147D02*
X156544404Y-98520195D01*
X156544404Y-98520195D02*
X156496785Y-98424957D01*
X156496785Y-98424957D02*
X156449166Y-98377338D01*
X156449166Y-98377338D02*
X156353928Y-98329719D01*
X156353928Y-98329719D02*
X156163452Y-98329719D01*
X156163452Y-98329719D02*
X156068214Y-98377338D01*
X156068214Y-98377338D02*
X156020595Y-98424957D01*
X156020595Y-98424957D02*
X155972976Y-98520195D01*
X155972976Y-98520195D02*
X155972976Y-98758290D01*
X155972976Y-98758290D02*
X156020595Y-98853528D01*
X156020595Y-98853528D02*
X156068214Y-98901147D01*
X156068214Y-98901147D02*
X156163452Y-98948766D01*
X156163452Y-98948766D02*
X156353928Y-98948766D01*
X156353928Y-98948766D02*
X156449166Y-98901147D01*
X156449166Y-98901147D02*
X156496785Y-98853528D01*
X156496785Y-98853528D02*
X156544404Y-98758290D01*
D10*
X115249167Y-90065700D02*
X115392024Y-90113319D01*
X115392024Y-90113319D02*
X115630119Y-90113319D01*
X115630119Y-90113319D02*
X115725357Y-90065700D01*
X115725357Y-90065700D02*
X115772976Y-90018080D01*
X115772976Y-90018080D02*
X115820595Y-89922842D01*
X115820595Y-89922842D02*
X115820595Y-89827604D01*
X115820595Y-89827604D02*
X115772976Y-89732366D01*
X115772976Y-89732366D02*
X115725357Y-89684747D01*
X115725357Y-89684747D02*
X115630119Y-89637128D01*
X115630119Y-89637128D02*
X115439643Y-89589509D01*
X115439643Y-89589509D02*
X115344405Y-89541890D01*
X115344405Y-89541890D02*
X115296786Y-89494271D01*
X115296786Y-89494271D02*
X115249167Y-89399033D01*
X115249167Y-89399033D02*
X115249167Y-89303795D01*
X115249167Y-89303795D02*
X115296786Y-89208557D01*
X115296786Y-89208557D02*
X115344405Y-89160938D01*
X115344405Y-89160938D02*
X115439643Y-89113319D01*
X115439643Y-89113319D02*
X115677738Y-89113319D01*
X115677738Y-89113319D02*
X115820595Y-89160938D01*
X116153929Y-89113319D02*
X116392024Y-90113319D01*
X116392024Y-90113319D02*
X116582500Y-89399033D01*
X116582500Y-89399033D02*
X116772976Y-90113319D01*
X116772976Y-90113319D02*
X117011072Y-89113319D01*
X117868214Y-89113319D02*
X117392024Y-89113319D01*
X117392024Y-89113319D02*
X117344405Y-89589509D01*
X117344405Y-89589509D02*
X117392024Y-89541890D01*
X117392024Y-89541890D02*
X117487262Y-89494271D01*
X117487262Y-89494271D02*
X117725357Y-89494271D01*
X117725357Y-89494271D02*
X117820595Y-89541890D01*
X117820595Y-89541890D02*
X117868214Y-89589509D01*
X117868214Y-89589509D02*
X117915833Y-89684747D01*
X117915833Y-89684747D02*
X117915833Y-89922842D01*
X117915833Y-89922842D02*
X117868214Y-90018080D01*
X117868214Y-90018080D02*
X117820595Y-90065700D01*
X117820595Y-90065700D02*
X117725357Y-90113319D01*
X117725357Y-90113319D02*
X117487262Y-90113319D01*
X117487262Y-90113319D02*
X117392024Y-90065700D01*
X117392024Y-90065700D02*
X117344405Y-90018080D01*
X172399167Y-90065700D02*
X172542024Y-90113319D01*
X172542024Y-90113319D02*
X172780119Y-90113319D01*
X172780119Y-90113319D02*
X172875357Y-90065700D01*
X172875357Y-90065700D02*
X172922976Y-90018080D01*
X172922976Y-90018080D02*
X172970595Y-89922842D01*
X172970595Y-89922842D02*
X172970595Y-89827604D01*
X172970595Y-89827604D02*
X172922976Y-89732366D01*
X172922976Y-89732366D02*
X172875357Y-89684747D01*
X172875357Y-89684747D02*
X172780119Y-89637128D01*
X172780119Y-89637128D02*
X172589643Y-89589509D01*
X172589643Y-89589509D02*
X172494405Y-89541890D01*
X172494405Y-89541890D02*
X172446786Y-89494271D01*
X172446786Y-89494271D02*
X172399167Y-89399033D01*
X172399167Y-89399033D02*
X172399167Y-89303795D01*
X172399167Y-89303795D02*
X172446786Y-89208557D01*
X172446786Y-89208557D02*
X172494405Y-89160938D01*
X172494405Y-89160938D02*
X172589643Y-89113319D01*
X172589643Y-89113319D02*
X172827738Y-89113319D01*
X172827738Y-89113319D02*
X172970595Y-89160938D01*
X173303929Y-89113319D02*
X173542024Y-90113319D01*
X173542024Y-90113319D02*
X173732500Y-89399033D01*
X173732500Y-89399033D02*
X173922976Y-90113319D01*
X173922976Y-90113319D02*
X174161072Y-89113319D01*
X174684881Y-89541890D02*
X174589643Y-89494271D01*
X174589643Y-89494271D02*
X174542024Y-89446652D01*
X174542024Y-89446652D02*
X174494405Y-89351414D01*
X174494405Y-89351414D02*
X174494405Y-89303795D01*
X174494405Y-89303795D02*
X174542024Y-89208557D01*
X174542024Y-89208557D02*
X174589643Y-89160938D01*
X174589643Y-89160938D02*
X174684881Y-89113319D01*
X174684881Y-89113319D02*
X174875357Y-89113319D01*
X174875357Y-89113319D02*
X174970595Y-89160938D01*
X174970595Y-89160938D02*
X175018214Y-89208557D01*
X175018214Y-89208557D02*
X175065833Y-89303795D01*
X175065833Y-89303795D02*
X175065833Y-89351414D01*
X175065833Y-89351414D02*
X175018214Y-89446652D01*
X175018214Y-89446652D02*
X174970595Y-89494271D01*
X174970595Y-89494271D02*
X174875357Y-89541890D01*
X174875357Y-89541890D02*
X174684881Y-89541890D01*
X174684881Y-89541890D02*
X174589643Y-89589509D01*
X174589643Y-89589509D02*
X174542024Y-89637128D01*
X174542024Y-89637128D02*
X174494405Y-89732366D01*
X174494405Y-89732366D02*
X174494405Y-89922842D01*
X174494405Y-89922842D02*
X174542024Y-90018080D01*
X174542024Y-90018080D02*
X174589643Y-90065700D01*
X174589643Y-90065700D02*
X174684881Y-90113319D01*
X174684881Y-90113319D02*
X174875357Y-90113319D01*
X174875357Y-90113319D02*
X174970595Y-90065700D01*
X174970595Y-90065700D02*
X175018214Y-90018080D01*
X175018214Y-90018080D02*
X175065833Y-89922842D01*
X175065833Y-89922842D02*
X175065833Y-89732366D01*
X175065833Y-89732366D02*
X175018214Y-89637128D01*
X175018214Y-89637128D02*
X174970595Y-89589509D01*
X174970595Y-89589509D02*
X174875357Y-89541890D01*
D11*
X135018214Y-99329719D02*
X135018214Y-98329719D01*
X135018214Y-98329719D02*
X135256309Y-98329719D01*
X135256309Y-98329719D02*
X135399166Y-98377338D01*
X135399166Y-98377338D02*
X135494404Y-98472576D01*
X135494404Y-98472576D02*
X135542023Y-98567814D01*
X135542023Y-98567814D02*
X135589642Y-98758290D01*
X135589642Y-98758290D02*
X135589642Y-98901147D01*
X135589642Y-98901147D02*
X135542023Y-99091623D01*
X135542023Y-99091623D02*
X135494404Y-99186861D01*
X135494404Y-99186861D02*
X135399166Y-99282100D01*
X135399166Y-99282100D02*
X135256309Y-99329719D01*
X135256309Y-99329719D02*
X135018214Y-99329719D01*
X136542023Y-99329719D02*
X135970595Y-99329719D01*
X136256309Y-99329719D02*
X136256309Y-98329719D01*
X136256309Y-98329719D02*
X136161071Y-98472576D01*
X136161071Y-98472576D02*
X136065833Y-98567814D01*
X136065833Y-98567814D02*
X135970595Y-98615433D01*
X137113452Y-98758290D02*
X137018214Y-98710671D01*
X137018214Y-98710671D02*
X136970595Y-98663052D01*
X136970595Y-98663052D02*
X136922976Y-98567814D01*
X136922976Y-98567814D02*
X136922976Y-98520195D01*
X136922976Y-98520195D02*
X136970595Y-98424957D01*
X136970595Y-98424957D02*
X137018214Y-98377338D01*
X137018214Y-98377338D02*
X137113452Y-98329719D01*
X137113452Y-98329719D02*
X137303928Y-98329719D01*
X137303928Y-98329719D02*
X137399166Y-98377338D01*
X137399166Y-98377338D02*
X137446785Y-98424957D01*
X137446785Y-98424957D02*
X137494404Y-98520195D01*
X137494404Y-98520195D02*
X137494404Y-98567814D01*
X137494404Y-98567814D02*
X137446785Y-98663052D01*
X137446785Y-98663052D02*
X137399166Y-98710671D01*
X137399166Y-98710671D02*
X137303928Y-98758290D01*
X137303928Y-98758290D02*
X137113452Y-98758290D01*
X137113452Y-98758290D02*
X137018214Y-98805909D01*
X137018214Y-98805909D02*
X136970595Y-98853528D01*
X136970595Y-98853528D02*
X136922976Y-98948766D01*
X136922976Y-98948766D02*
X136922976Y-99139242D01*
X136922976Y-99139242D02*
X136970595Y-99234480D01*
X136970595Y-99234480D02*
X137018214Y-99282100D01*
X137018214Y-99282100D02*
X137113452Y-99329719D01*
X137113452Y-99329719D02*
X137303928Y-99329719D01*
X137303928Y-99329719D02*
X137399166Y-99282100D01*
X137399166Y-99282100D02*
X137446785Y-99234480D01*
X137446785Y-99234480D02*
X137494404Y-99139242D01*
X137494404Y-99139242D02*
X137494404Y-98948766D01*
X137494404Y-98948766D02*
X137446785Y-98853528D01*
X137446785Y-98853528D02*
X137399166Y-98805909D01*
X137399166Y-98805909D02*
X137303928Y-98758290D01*
D10*
X115249167Y-109115700D02*
X115392024Y-109163319D01*
X115392024Y-109163319D02*
X115630119Y-109163319D01*
X115630119Y-109163319D02*
X115725357Y-109115700D01*
X115725357Y-109115700D02*
X115772976Y-109068080D01*
X115772976Y-109068080D02*
X115820595Y-108972842D01*
X115820595Y-108972842D02*
X115820595Y-108877604D01*
X115820595Y-108877604D02*
X115772976Y-108782366D01*
X115772976Y-108782366D02*
X115725357Y-108734747D01*
X115725357Y-108734747D02*
X115630119Y-108687128D01*
X115630119Y-108687128D02*
X115439643Y-108639509D01*
X115439643Y-108639509D02*
X115344405Y-108591890D01*
X115344405Y-108591890D02*
X115296786Y-108544271D01*
X115296786Y-108544271D02*
X115249167Y-108449033D01*
X115249167Y-108449033D02*
X115249167Y-108353795D01*
X115249167Y-108353795D02*
X115296786Y-108258557D01*
X115296786Y-108258557D02*
X115344405Y-108210938D01*
X115344405Y-108210938D02*
X115439643Y-108163319D01*
X115439643Y-108163319D02*
X115677738Y-108163319D01*
X115677738Y-108163319D02*
X115820595Y-108210938D01*
X116153929Y-108163319D02*
X116392024Y-109163319D01*
X116392024Y-109163319D02*
X116582500Y-108449033D01*
X116582500Y-108449033D02*
X116772976Y-109163319D01*
X116772976Y-109163319D02*
X117011072Y-108163319D01*
X117439643Y-109163319D02*
X117630119Y-109163319D01*
X117630119Y-109163319D02*
X117725357Y-109115700D01*
X117725357Y-109115700D02*
X117772976Y-109068080D01*
X117772976Y-109068080D02*
X117868214Y-108925223D01*
X117868214Y-108925223D02*
X117915833Y-108734747D01*
X117915833Y-108734747D02*
X117915833Y-108353795D01*
X117915833Y-108353795D02*
X117868214Y-108258557D01*
X117868214Y-108258557D02*
X117820595Y-108210938D01*
X117820595Y-108210938D02*
X117725357Y-108163319D01*
X117725357Y-108163319D02*
X117534881Y-108163319D01*
X117534881Y-108163319D02*
X117439643Y-108210938D01*
X117439643Y-108210938D02*
X117392024Y-108258557D01*
X117392024Y-108258557D02*
X117344405Y-108353795D01*
X117344405Y-108353795D02*
X117344405Y-108591890D01*
X117344405Y-108591890D02*
X117392024Y-108687128D01*
X117392024Y-108687128D02*
X117439643Y-108734747D01*
X117439643Y-108734747D02*
X117534881Y-108782366D01*
X117534881Y-108782366D02*
X117725357Y-108782366D01*
X117725357Y-108782366D02*
X117820595Y-108734747D01*
X117820595Y-108734747D02*
X117868214Y-108687128D01*
X117868214Y-108687128D02*
X117915833Y-108591890D01*
X153349167Y-90065700D02*
X153492024Y-90113319D01*
X153492024Y-90113319D02*
X153730119Y-90113319D01*
X153730119Y-90113319D02*
X153825357Y-90065700D01*
X153825357Y-90065700D02*
X153872976Y-90018080D01*
X153872976Y-90018080D02*
X153920595Y-89922842D01*
X153920595Y-89922842D02*
X153920595Y-89827604D01*
X153920595Y-89827604D02*
X153872976Y-89732366D01*
X153872976Y-89732366D02*
X153825357Y-89684747D01*
X153825357Y-89684747D02*
X153730119Y-89637128D01*
X153730119Y-89637128D02*
X153539643Y-89589509D01*
X153539643Y-89589509D02*
X153444405Y-89541890D01*
X153444405Y-89541890D02*
X153396786Y-89494271D01*
X153396786Y-89494271D02*
X153349167Y-89399033D01*
X153349167Y-89399033D02*
X153349167Y-89303795D01*
X153349167Y-89303795D02*
X153396786Y-89208557D01*
X153396786Y-89208557D02*
X153444405Y-89160938D01*
X153444405Y-89160938D02*
X153539643Y-89113319D01*
X153539643Y-89113319D02*
X153777738Y-89113319D01*
X153777738Y-89113319D02*
X153920595Y-89160938D01*
X154253929Y-89113319D02*
X154492024Y-90113319D01*
X154492024Y-90113319D02*
X154682500Y-89399033D01*
X154682500Y-89399033D02*
X154872976Y-90113319D01*
X154872976Y-90113319D02*
X155111072Y-89113319D01*
X155396786Y-89113319D02*
X156063452Y-89113319D01*
X156063452Y-89113319D02*
X155634881Y-90113319D01*
D11*
X173118214Y-80279719D02*
X173118214Y-79279719D01*
X173118214Y-79279719D02*
X173356309Y-79279719D01*
X173356309Y-79279719D02*
X173499166Y-79327338D01*
X173499166Y-79327338D02*
X173594404Y-79422576D01*
X173594404Y-79422576D02*
X173642023Y-79517814D01*
X173642023Y-79517814D02*
X173689642Y-79708290D01*
X173689642Y-79708290D02*
X173689642Y-79851147D01*
X173689642Y-79851147D02*
X173642023Y-80041623D01*
X173642023Y-80041623D02*
X173594404Y-80136861D01*
X173594404Y-80136861D02*
X173499166Y-80232100D01*
X173499166Y-80232100D02*
X173356309Y-80279719D01*
X173356309Y-80279719D02*
X173118214Y-80279719D01*
X174642023Y-80279719D02*
X174070595Y-80279719D01*
X174356309Y-80279719D02*
X174356309Y-79279719D01*
X174356309Y-79279719D02*
X174261071Y-79422576D01*
X174261071Y-79422576D02*
X174165833Y-79517814D01*
X174165833Y-79517814D02*
X174070595Y-79565433D01*
X175499166Y-79279719D02*
X175308690Y-79279719D01*
X175308690Y-79279719D02*
X175213452Y-79327338D01*
X175213452Y-79327338D02*
X175165833Y-79374957D01*
X175165833Y-79374957D02*
X175070595Y-79517814D01*
X175070595Y-79517814D02*
X175022976Y-79708290D01*
X175022976Y-79708290D02*
X175022976Y-80089242D01*
X175022976Y-80089242D02*
X175070595Y-80184480D01*
X175070595Y-80184480D02*
X175118214Y-80232100D01*
X175118214Y-80232100D02*
X175213452Y-80279719D01*
X175213452Y-80279719D02*
X175403928Y-80279719D01*
X175403928Y-80279719D02*
X175499166Y-80232100D01*
X175499166Y-80232100D02*
X175546785Y-80184480D01*
X175546785Y-80184480D02*
X175594404Y-80089242D01*
X175594404Y-80089242D02*
X175594404Y-79851147D01*
X175594404Y-79851147D02*
X175546785Y-79755909D01*
X175546785Y-79755909D02*
X175499166Y-79708290D01*
X175499166Y-79708290D02*
X175403928Y-79660671D01*
X175403928Y-79660671D02*
X175213452Y-79660671D01*
X175213452Y-79660671D02*
X175118214Y-79708290D01*
X175118214Y-79708290D02*
X175070595Y-79755909D01*
X175070595Y-79755909D02*
X175022976Y-79851147D01*
%TO.C,SW4*%
D12*
X166747500Y-71497500D02*
X180717500Y-71497500D01*
X166747500Y-85467500D02*
X166747500Y-71497500D01*
X180717500Y-71497500D02*
X180717500Y-85467500D01*
X180717500Y-85467500D02*
X166747500Y-85467500D01*
%TO.C,SW3*%
X147697500Y-71497500D02*
X161667500Y-71497500D01*
X147697500Y-85467500D02*
X147697500Y-71497500D01*
X161667500Y-71497500D02*
X161667500Y-85467500D01*
X161667500Y-85467500D02*
X147697500Y-85467500D01*
%TO.C,SW10*%
X128647500Y-109597500D02*
X142617500Y-109597500D01*
X128647500Y-123567500D02*
X128647500Y-109597500D01*
X142617500Y-109597500D02*
X142617500Y-123567500D01*
X142617500Y-123567500D02*
X128647500Y-123567500D01*
%TO.C,SW2*%
X128647500Y-71497500D02*
X142617500Y-71497500D01*
X128647500Y-85467500D02*
X128647500Y-71497500D01*
X142617500Y-71497500D02*
X142617500Y-85467500D01*
X142617500Y-85467500D02*
X128647500Y-85467500D01*
%TO.C,SW11*%
X147697500Y-109597500D02*
X161667500Y-109597500D01*
X147697500Y-123567500D02*
X147697500Y-109597500D01*
X161667500Y-109597500D02*
X161667500Y-123567500D01*
X161667500Y-123567500D02*
X147697500Y-123567500D01*
%TO.C,SW1*%
X109597500Y-71497500D02*
X123567500Y-71497500D01*
X109597500Y-85467500D02*
X109597500Y-71497500D01*
X123567500Y-71497500D02*
X123567500Y-85467500D01*
X123567500Y-85467500D02*
X109597500Y-85467500D01*
%TO.C,SW12*%
X166747500Y-109597500D02*
X180717500Y-109597500D01*
X166747500Y-123567500D02*
X166747500Y-109597500D01*
X180717500Y-109597500D02*
X180717500Y-123567500D01*
X180717500Y-123567500D02*
X166747500Y-123567500D01*
%TO.C,SW6*%
X128647500Y-90547500D02*
X142617500Y-90547500D01*
X128647500Y-104517500D02*
X128647500Y-90547500D01*
X142617500Y-90547500D02*
X142617500Y-104517500D01*
X142617500Y-104517500D02*
X128647500Y-104517500D01*
%TO.C,SW5*%
X109597500Y-90547500D02*
X123567500Y-90547500D01*
X109597500Y-104517500D02*
X109597500Y-90547500D01*
X123567500Y-90547500D02*
X123567500Y-104517500D01*
X123567500Y-104517500D02*
X109597500Y-104517500D01*
%TO.C,SW8*%
X166747500Y-90547500D02*
X180717500Y-90547500D01*
X166747500Y-104517500D02*
X166747500Y-90547500D01*
X180717500Y-90547500D02*
X180717500Y-104517500D01*
X180717500Y-104517500D02*
X166747500Y-104517500D01*
%TO.C,SW9*%
X109597500Y-109597500D02*
X123567500Y-109597500D01*
X109597500Y-123567500D02*
X109597500Y-109597500D01*
X123567500Y-109597500D02*
X123567500Y-123567500D01*
X123567500Y-123567500D02*
X109597500Y-123567500D01*
%TO.C,SW7*%
X147697500Y-90547500D02*
X161667500Y-90547500D01*
X147697500Y-104517500D02*
X147697500Y-90547500D01*
X161667500Y-90547500D02*
X161667500Y-104517500D01*
X161667500Y-104517500D02*
X147697500Y-104517500D01*
%TD*%
M02*
